<svg width="20" height="21" viewBox="0 0 20 21" fill="none" xmlns="http://www.w3.org/2000/svg">
<path d="M10 6.75C11.3807 6.75 12.5 5.63071 12.5 4.25C12.5 2.86929 11.3807 1.75 10 1.75C8.61929 1.75 7.5 2.86929 7.5 4.25C7.5 5.63071 8.61929 6.75 10 6.75Z" stroke="#FCFCFC" stroke-linecap="round" stroke-linejoin="round"/>
<path d="M10.625 6.90625C10.625 6.81301 10.588 6.72359 10.522 6.65766C10.4561 6.59173 10.3667 6.55469 10.2734 6.55469H9.72656C9.63332 6.55469 9.5439 6.59173 9.47797 6.65766C9.41204 6.72359 9.375 6.81301 9.375 6.90625V18.3734C9.37508 18.5395 9.40814 18.7039 9.47227 18.857L9.86562 19.7945C9.87881 19.8187 9.89824 19.8388 9.92188 19.8528C9.94553 19.8668 9.97251 19.8742 10 19.8742C10.0275 19.8742 10.0545 19.8668 10.0781 19.8528C10.1018 19.8388 10.1212 19.8187 10.1344 19.7945L10.5277 18.857C10.5919 18.7039 10.6249 18.5395 10.625 18.3734V6.90625Z" fill="#FCFCFC"/>
<path d="M10.9375 4.25C11.4553 4.25 11.875 3.83027 11.875 3.3125C11.875 2.79473 11.4553 2.375 10.9375 2.375C10.4197 2.375 10 2.79473 10 3.3125C10 3.83027 10.4197 4.25 10.9375 4.25Z" fill="#FCFCFC"/>
</svg>
