<svg width="60" height="60" viewBox="0 0 60 60" fill="none" xmlns="http://www.w3.org/2000/svg">
<path d="M38.3442 30.3487C38.3661 30.8661 37.9645 31.3032 37.4473 31.3251C33.5257 31.4912 30.6654 31.9292 27.5747 32.8373C27.4864 32.8632 27.3975 32.8755 27.3101 32.8755C26.9047 32.8755 26.531 32.6106 26.4109 32.2021C26.265 31.7053 26.5494 31.1843 27.0462 31.0383C30.2932 30.0842 33.2836 29.6247 37.3678 29.4517C37.8821 29.4265 38.3223 29.8315 38.3442 30.3487ZM37.3627 39.5104C33.2645 39.7066 29.9811 40.2292 27.0298 41.1551C26.5357 41.31 26.2608 41.8362 26.4159 42.3301C26.5416 42.7308 26.9114 42.9872 27.3102 42.9872C27.4031 42.9872 27.4977 42.9732 27.591 42.9439C30.3852 42.0675 33.5187 41.5714 37.4523 41.3833C37.9694 41.3585 38.3686 40.9193 38.3439 40.402C38.3193 39.8851 37.8809 39.4861 37.3627 39.5104ZM37.3652 34.4812C33.2918 34.6656 30.1066 35.1651 27.037 36.1009C26.5417 36.2518 26.2628 36.7758 26.4137 37.271C26.537 37.6752 26.9085 37.9353 27.3101 37.9353C27.4005 37.9353 27.4928 37.9221 27.5838 37.8943C30.497 37.0062 33.5398 36.5312 37.4498 36.3542C37.9671 36.3308 38.3674 35.8925 38.3441 35.3753C38.3208 34.8581 37.8841 34.4632 37.3652 34.4812ZM9.66703 26.2952C12.8918 26.4212 15.8061 26.7206 19.5471 27.7722C19.632 27.7962 19.7173 27.8075 19.8013 27.8075C20.2107 27.8075 20.587 27.5371 20.7033 27.1235C20.8434 26.6251 20.553 26.1074 20.0545 25.9673C16.1366 24.8659 13.0978 24.5529 9.74027 24.4216C9.22371 24.4012 8.78707 24.8045 8.7668 25.3219C8.74676 25.8391 9.14965 26.2749 9.66703 26.2952ZM9.67055 21.2649C12.9735 21.3815 15.6502 21.6537 19.5585 22.6991C19.6396 22.7208 19.7211 22.7311 19.8013 22.7311C20.2153 22.7311 20.5943 22.4546 20.7064 22.0356C20.8403 21.5353 20.5432 21.0214 20.043 20.8876C15.9628 19.7962 13.1745 19.5124 9.73676 19.391C9.22172 19.3727 8.78508 19.7774 8.7668 20.2949C8.7484 20.8124 9.15305 21.2467 9.67055 21.2649ZM9.66129 36.3545C13.5715 36.5314 16.6143 37.0063 19.5273 37.8945C19.6184 37.9223 19.7105 37.9356 19.8011 37.9356C20.2028 37.9356 20.5743 37.6754 20.6974 37.2712C20.8484 36.7759 20.5693 36.2522 20.0741 36.1011C17.0047 35.1654 13.8195 34.6658 9.7459 34.4815C9.22945 34.464 8.79047 34.8585 8.76691 35.3757C8.74371 35.8926 9.14402 36.3309 9.66129 36.3545ZM20.0814 41.1551C17.1298 40.2292 13.8465 39.7066 9.74848 39.5104C9.23074 39.4853 8.79187 39.8849 8.76715 40.402C8.74242 40.9193 9.14156 41.3585 9.65871 41.3833C13.5922 41.5714 16.7258 42.0675 19.52 42.9439C19.6134 42.9732 19.708 42.9872 19.8008 42.9872C20.1996 42.9872 20.5695 42.7308 20.6951 42.3301C20.8503 41.8362 20.5754 41.3101 20.0814 41.1551ZM9.66398 31.3251C13.5855 31.4912 16.4457 31.9292 19.5366 32.8373C19.6248 32.8632 19.7137 32.8755 19.8012 32.8755C20.2065 32.8755 20.5802 32.6106 20.7003 32.2021C20.8462 31.7053 20.5618 31.1843 20.0651 31.0383C16.818 30.0842 13.8275 29.6247 9.74344 29.4517C9.22769 29.4299 8.78894 29.8313 8.76703 30.3486C8.74512 30.8661 9.14672 31.3031 9.66398 31.3251ZM46.1737 25.9292V48.9392C46.1737 49.457 45.754 49.8767 45.2362 49.8767H27.6728C27.5699 51.186 26.4715 52.2198 25.1362 52.2198H22.0091C20.6739 52.2198 19.5755 51.186 19.4726 49.8767H1.875C1.35727 49.8767 0.9375 49.457 0.9375 48.9392V17.7471C0.9375 17.2294 1.35727 16.8096 1.875 16.8096H5.01152V15.2063C5.01152 14.6886 5.43129 14.2688 5.94902 14.2688C14.2961 14.2688 16.9765 14.9949 22.3165 16.4416C22.4159 16.4685 22.5168 16.4959 22.6181 16.5233V14.9924L17.4265 13.6133C17.0156 13.5042 16.7297 13.1324 16.7297 12.7073C16.7297 12.2823 17.0156 11.9103 17.4265 11.8013L36.048 6.85486C36.2058 6.81303 36.3717 6.81303 36.5293 6.85486L55.151 11.8013C55.5619 11.9104 55.8478 12.2823 55.8478 12.7073C55.8478 13.1324 55.5619 13.5043 55.151 13.6133L54.7212 13.7274V21.7795L56.3931 22.7448C56.6832 22.9122 56.8618 23.2216 56.8618 23.5567V30.0854C56.8618 30.4407 56.661 30.7656 56.343 30.9241C56.0252 31.0829 55.645 31.0485 55.3609 30.8346L53.7837 29.6488L52.2066 30.8346C52.0411 30.959 51.8427 31.0228 51.643 31.0228C51.5003 31.0228 51.3569 30.9903 51.2244 30.924C50.9065 30.7653 50.7056 30.4406 50.7056 30.0853V23.5565C50.7056 23.2216 50.8842 22.9121 51.1744 22.7447L52.8462 21.7795V14.2255L49.9594 14.9922V24.4437C49.9594 24.8963 49.6358 25.2845 49.1904 25.3658C48.0877 25.5676 47.0836 25.756 46.1737 25.9292ZM54.9869 24.0979L53.7838 23.4033L52.5807 24.0979V28.2074L53.2203 27.7264C53.3872 27.6009 53.5854 27.5382 53.7838 27.5382C53.9822 27.5382 54.1803 27.6009 54.3472 27.7264L54.9869 28.2074V24.0979ZM21.3189 12.7073L36.2887 16.684L51.2587 12.7073L36.2887 8.7308L21.3189 12.7073ZM24.4931 15.4905V23.663C26.327 24.002 27.8668 24.2996 29.134 24.5444C36.2887 25.9277 36.2889 25.9277 43.4437 24.5444C44.7108 24.2995 46.2506 24.0019 48.0846 23.663V15.4904L36.5294 18.5599C36.4506 18.5809 36.3697 18.5914 36.2887 18.5914C36.2078 18.5914 36.1269 18.5809 36.048 18.5599L24.4931 15.4905ZM40.2248 44.4537V27.0535C38.6275 27.3272 37.4578 27.4642 36.2889 27.4642C34.3936 27.4642 32.4983 27.1046 28.778 26.3853C27.5939 26.1566 26.1705 25.8814 24.4931 25.5698V47.1774C28.278 45.423 33.4525 44.5284 40.2248 44.4537ZM6.88652 44.4537C13.6588 44.5284 18.8332 45.423 22.6181 47.1774V18.4657C22.3473 18.3926 22.0833 18.3211 21.8262 18.2515C16.6964 16.8619 14.2445 16.1976 6.88652 16.147V44.4537ZM19.5768 48.0016C16.1044 46.8756 11.6031 46.3235 5.94891 46.3235C5.43117 46.3235 5.01141 45.9037 5.01141 45.386V18.6846H2.8125V48.0016H19.5768ZM25.8056 48.9391C25.8056 48.8273 25.8261 48.7207 25.862 48.6213C25.2055 48.8985 24.593 49.2008 24.0243 49.529C23.8793 49.6128 23.7173 49.6547 23.5555 49.6547C23.3937 49.6547 23.2317 49.6128 23.0868 49.529C22.53 49.2076 21.9306 48.9113 21.2897 48.6389C21.3216 48.7332 21.3397 48.834 21.3397 48.9391V49.6753C21.3397 50.0443 21.64 50.3447 22.0091 50.3447H25.1362C25.5053 50.3447 25.8056 50.0444 25.8056 49.6753V48.9391ZM44.2987 26.289C44.1281 26.3219 43.9614 26.3542 43.7996 26.3854C43.1858 26.5042 42.6225 26.6128 42.0998 26.7119V45.3861C42.0998 45.9038 41.6801 46.3236 41.1623 46.3236C35.508 46.3236 31.0068 46.8758 27.5344 48.0017H44.2986L44.2987 26.289ZM58.9481 37.9309C58.7473 38.3647 58.3085 38.6451 57.8303 38.6451H56.8832V48.9853C56.8832 49.8263 56.1989 50.5106 55.3577 50.5106H52.2098C51.3687 50.5106 50.6844 49.8263 50.6844 48.9853V38.6451H49.7373C49.2591 38.6451 48.8203 38.3647 48.6194 37.9309C48.4187 37.497 48.4891 36.9812 48.7986 36.6165L52.845 31.8507C53.0795 31.5747 53.4216 31.4164 53.7837 31.4164C54.1459 31.4164 54.4881 31.5747 54.7225 31.8507L58.7689 36.6166C59.0785 36.9811 59.1489 37.497 58.9481 37.9309ZM56.4397 36.7701L53.7839 33.6422L51.128 36.7701H51.622C52.1398 36.7701 52.5595 37.1899 52.5595 37.7076V48.6356H55.0083V37.7076C55.0083 37.1899 55.428 36.7701 55.9458 36.7701H56.4397ZM56.3277 51.3019H51.24C50.7223 51.3019 50.3025 51.7216 50.3025 52.2394C50.3025 52.7571 50.7223 53.1769 51.24 53.1769H56.3277C56.8454 53.1769 57.2652 52.7571 57.2652 52.2394C57.2652 51.7216 56.8454 51.3019 56.3277 51.3019Z" fill="#0F766E"/>
</svg>
