<svg width="60" height="60" viewBox="0 0 60 60" fill="none" xmlns="http://www.w3.org/2000/svg">
<path d="M53.4375 19.6874H49.6875V16.8749C49.6875 16.6263 49.5887 16.3878 49.4129 16.212C49.2371 16.0362 48.9986 15.9374 48.75 15.9374C45.5465 15.9364 42.3657 16.4752 39.3413 17.5312C39.3497 17.4158 39.3656 17.3033 39.3694 17.1862C39.3765 16.9931 39.3239 16.8025 39.2185 16.6404C39.1132 16.4784 38.9604 16.3529 38.781 16.2811C38.6017 16.2093 38.4045 16.1946 38.2164 16.2391C38.0284 16.2837 37.8587 16.3852 37.7306 16.5299C36.7161 17.6804 35.3306 18.4391 33.8148 18.6743C32.2991 18.9095 30.7488 18.6063 29.4333 17.8174C28.1179 17.0285 27.1203 15.8037 26.614 14.3557C26.1076 12.9078 26.1244 11.3283 26.6616 9.89147C26.729 9.71045 26.7389 9.51302 26.6898 9.32618C26.6408 9.13934 26.5352 8.97221 26.3876 8.84765C26.2399 8.72309 26.0574 8.64718 25.865 8.6303C25.6725 8.61342 25.4796 8.65639 25.3125 8.75334C23.8893 9.57907 22.7075 10.7636 21.885 12.1886C21.0625 13.6137 20.6281 15.2295 20.625 16.8749C20.625 17.0952 20.6428 17.3118 20.6578 17.5312C17.6337 16.4752 14.4532 15.9364 11.25 15.9374C11.0014 15.9374 10.7629 16.0362 10.5871 16.212C10.4113 16.3878 10.3125 16.6263 10.3125 16.8749V19.6874H6.5625C6.31386 19.6874 6.0754 19.7862 5.89959 19.962C5.72377 20.1378 5.625 20.3763 5.625 20.6249V48.7499C5.625 48.9986 5.72377 49.237 5.89959 49.4128C6.0754 49.5886 6.31386 49.6874 6.5625 49.6874H11.9934C15.3764 49.6888 18.7093 50.5051 21.71 52.0673C24.7107 53.6295 27.2909 55.8916 29.2322 58.6621C29.3186 58.7855 29.4336 58.8862 29.5672 58.9558C29.7009 59.0254 29.8493 59.0617 30 59.0617C30.1507 59.0617 30.2991 59.0254 30.4328 58.9558C30.5664 58.8862 30.6814 58.7855 30.7678 58.6621C32.7091 55.8916 35.2893 53.6295 38.29 52.0673C41.2907 50.5051 44.6236 49.6888 48.0066 49.6874H53.4375C53.6861 49.6874 53.9246 49.5886 54.1004 49.4128C54.2762 49.237 54.375 48.9986 54.375 48.7499V20.6249C54.375 20.3763 54.2762 20.1378 54.1004 19.962C53.9246 19.7862 53.6861 19.6874 53.4375 19.6874ZM38.9428 19.6874C41.7716 18.5661 44.7715 17.9373 47.8125 17.8283V43.1249H47.1563C43.8288 43.1337 40.5654 44.0409 37.7107 45.7506C34.856 47.4602 32.5159 49.909 30.9375 52.8383V26.204C32.7657 26.0281 34.5011 25.3156 35.9255 24.1561C37.3498 22.9966 38.3996 21.4419 38.9428 19.6874ZM24.3797 11.9137C24.3797 12.0074 24.3797 12.0955 24.3797 12.1874C24.3798 13.6692 24.7701 15.1248 25.5114 16.4078C26.2527 17.6909 27.3188 18.7561 28.6024 19.4962C29.8861 20.2364 31.3421 20.6255 32.8238 20.6243C34.3056 20.6232 35.7609 20.2318 37.0434 19.4896C36.6592 20.5207 36.0528 21.4545 35.2673 22.225C34.4817 22.9955 33.5363 23.5837 32.498 23.9479C31.4597 24.3121 30.3539 24.4433 29.2592 24.3324C28.1645 24.2214 27.1076 23.8709 26.1635 23.3058C25.2194 22.7407 24.4112 21.9747 23.7963 21.0623C23.1813 20.1498 22.7746 19.1133 22.6051 18.0261C22.4356 16.9389 22.5074 15.8277 22.8153 14.7714C23.1233 13.715 23.66 12.7394 24.3872 11.9137H24.3797ZM12.1875 17.8283C15.2285 17.9372 18.2284 18.566 21.0572 19.6874C21.6102 21.4361 22.6628 22.9846 24.0853 24.1423C25.5078 25.2999 27.238 26.0159 29.0625 26.2021V52.8383C27.4841 49.909 25.144 47.4602 22.2893 45.7506C19.4346 44.0409 16.1712 43.1337 12.8438 43.1249H12.1875V17.8283ZM11.9934 47.8124H7.5V21.5624H10.3125V44.0624C10.3125 44.3111 10.4113 44.5495 10.5871 44.7253C10.7629 44.9011 11.0014 44.9999 11.25 44.9999H12.8438C15.8539 45.0088 18.805 45.8361 21.3812 47.3932C23.9573 48.9503 26.0616 51.1786 27.4688 53.8396C23.2444 49.9678 17.7237 47.8177 11.9934 47.8124ZM52.5 47.8124H48.0066C42.2741 47.8161 36.7507 49.9663 32.5247 53.8396C33.9324 51.1776 36.0377 48.9486 38.6151 47.3915C41.1925 45.8343 44.145 45.0076 47.1563 44.9999H48.75C48.9986 44.9999 49.2371 44.9011 49.4129 44.7253C49.5887 44.5495 49.6875 44.3111 49.6875 44.0624V21.5624H52.5V47.8124Z" fill="#0F766E"/>
<path d="M25.5872 44.7261L26.9128 43.3986L26.2022 42.6898C24.8575 41.3373 23.2579 40.265 21.4959 39.5351C19.734 38.8051 17.8447 38.432 15.9375 38.4373V40.3123C17.5984 40.3077 19.2436 40.6326 20.7781 41.2682C22.3125 41.9039 23.7055 42.8376 24.8766 44.0154L25.5872 44.7261Z" fill="#0F766E"/>
<path d="M25.5872 39.1011L26.9128 37.7736L26.2022 37.0648C24.8575 35.7123 23.2579 34.64 21.4959 33.9101C19.734 33.1801 17.8447 32.807 15.9375 32.8123V34.6873C17.5984 34.6827 19.2436 35.0076 20.7781 35.6432C22.3125 36.2789 23.7055 37.2126 24.8766 38.3904L25.5872 39.1011Z" fill="#0F766E"/>
<path d="M25.5872 33.4761L26.9128 32.1486L26.2022 31.4398C24.8575 30.0873 23.2579 29.015 21.4959 28.2851C19.734 27.5551 17.8447 27.182 15.9375 27.1873V29.0623C17.5984 29.0577 19.2436 29.3826 20.7781 30.0182C22.3125 30.6539 23.7055 31.5876 24.8766 32.7654L25.5872 33.4761Z" fill="#0F766E"/>
<path d="M33.0869 43.3986L34.4125 44.7261L35.1232 44.0154C36.2942 42.8376 37.6872 41.9039 39.2217 41.2682C40.7561 40.6326 42.4014 40.3077 44.0622 40.3123V38.4373C42.1551 38.432 40.2659 38.8051 38.504 39.5349C36.7421 40.2646 35.1424 41.3367 33.7975 42.6889L33.0869 43.3986Z" fill="#0F766E"/>
<path d="M33.0869 37.7736L34.4125 39.1011L35.1232 38.3904C36.2942 37.2126 37.6872 36.2789 39.2217 35.6432C40.7561 35.0076 42.4014 34.6827 44.0622 34.6873V32.8123C42.1551 32.807 40.2659 33.1801 38.504 33.9099C36.7421 34.6396 35.1424 35.7117 33.7975 37.0639L33.0869 37.7736Z" fill="#0F766E"/>
<path d="M33.0869 32.1486L34.4125 33.4761L35.1232 32.7654C36.2942 31.5876 37.6872 30.6539 39.2217 30.0182C40.7561 29.3826 42.4014 29.0577 44.0622 29.0623V27.1873C42.1551 27.182 40.2659 27.5551 38.504 28.2849C36.7421 29.0146 35.1424 30.0867 33.7975 31.4389L33.0869 32.1486Z" fill="#0F766E"/>
<path d="M29.4516 8.26118C29.5022 8.2968 29.5454 8.32774 29.5894 8.35493C29.9925 8.62211 31.4644 9.60461 32.0504 9.99555L33.8166 14.4131C33.886 14.5873 34.0061 14.7368 34.1614 14.842C34.3167 14.9473 34.5 15.0036 34.6875 15.0036C34.8751 15.0036 35.0584 14.9473 35.2137 14.842C35.3689 14.7368 35.4891 14.5873 35.5585 14.4131L37.3247 9.99555L39.8954 8.2818C40.0414 8.18443 40.1573 8.048 40.2296 7.88804C40.302 7.72807 40.3279 7.55101 40.3046 7.37701C40.2812 7.203 40.2095 7.03905 40.0975 6.90382C39.9856 6.7686 39.8379 6.66752 39.6713 6.61211L37.2713 5.81243L35.5575 1.52805C35.4881 1.35378 35.368 1.20434 35.2127 1.09906C35.0575 0.993778 34.8742 0.9375 34.6866 0.9375C34.499 0.9375 34.3157 0.993778 34.1605 1.09906C34.0052 1.20434 33.8851 1.35378 33.8157 1.52805L32.1029 5.81243L29.8707 6.5568C29.7592 6.57379 29.6525 6.61403 29.5575 6.67493C29.417 6.74993 29.298 6.85949 29.2115 6.99327C29.1251 7.12706 29.0742 7.28066 29.0636 7.43957C29.053 7.59849 29.0831 7.75749 29.1509 7.90157C29.2188 8.04564 29.3223 8.17005 29.4516 8.26305V8.26118ZM33.1079 7.45211C33.2373 7.40905 33.3558 7.33824 33.4551 7.24465C33.5543 7.15106 33.632 7.03693 33.6825 6.91024L34.6875 4.39868L35.6925 6.91118C35.7433 7.0377 35.8209 7.15164 35.9202 7.24506C36.0194 7.33849 36.1379 7.40915 36.2672 7.45211L37.261 7.78305L36.0422 8.59493C35.8845 8.69993 35.7622 8.85029 35.6916 9.02618L34.6875 11.5387L33.6835 9.02618C33.6129 8.85029 33.4906 8.69993 33.3329 8.59493C32.8641 8.28086 32.46 8.01274 32.1141 7.78305L33.1079 7.45211Z" fill="#0F766E"/>
</svg>
