<svg width="53" height="58" viewBox="0 0 53 58" fill="none" xmlns="http://www.w3.org/2000/svg">
<path d="M51.9399 43.7447C51.917 43.7064 51.3692 42.7982 50.4107 41.9754C49.0739 40.828 47.5776 40.3823 46.0837 40.6863C43.6974 41.1716 36.4702 44.1259 33.1878 45.4952L33.6157 44.5095C33.7964 44.093 33.6136 43.6087 33.2029 43.4152L18.2743 36.3929C18.099 36.3103 17.9008 36.2912 17.7127 36.3382L0.635565 40.6181C0.224128 40.7212 -0.045909 41.1149 0.00648625 41.536L1.30831 52.0342C1.33786 52.2727 1.46818 52.4873 1.66668 52.6233C1.86484 52.7594 2.11203 52.804 2.34513 52.7456L8.24362 51.2715L27.0626 57.664C27.1506 57.6939 27.2416 57.7087 27.3326 57.7087C27.4686 57.7087 27.604 57.6758 27.7266 57.6106L51.6134 44.9169C51.8166 44.8091 51.9664 44.6227 52.0282 44.401C52.0897 44.1793 52.0578 43.9422 51.9399 43.7447ZM27.2587 55.9575L8.54926 49.6022C8.46193 49.5727 8.37057 49.5575 8.27922 49.5575C8.21104 49.5575 8.14252 49.5659 8.07568 49.5827L2.85766 50.8869L1.76374 42.067L17.8299 38.0403L31.7506 44.5884L30.1153 48.3565C29.1194 47.9974 27.257 47.3284 25.3695 46.6627C19.6866 44.6586 19.3296 44.6368 19.1163 44.6237C18.6535 44.5951 18.2551 44.9474 18.2266 45.4103C18.1987 45.863 18.5352 46.2543 18.9833 46.2976C19.7655 46.4374 26.9255 48.9859 30.2852 50.2038C30.7024 50.3549 31.1648 50.1554 31.3415 49.7487L32.2201 47.7241C32.6715 47.5323 43.5708 42.9114 46.4182 42.3324C48.0032 42.01 49.2788 43.1129 49.9593 43.8942L27.2587 55.9575Z" fill="#0F766E"/>
<path d="M6.50373 33.8044H45.5539C46.0178 33.8044 46.3936 33.4285 46.3936 32.9647V17.2129C46.3936 15.6981 45.1613 14.4659 43.6466 14.4659H32.7947V9.77984C32.7947 8.26508 31.5624 7.03279 30.0476 7.03279H26.8505V5.72526H33.2149C33.5968 5.72526 33.9306 5.46765 34.0273 5.0982C34.1241 4.72874 33.9592 4.34048 33.6263 4.1534L26.4223 0.107554C26.1623 -0.0385484 25.8443 -0.0355256 25.587 0.114943C25.3297 0.265747 25.1715 0.541493 25.1715 0.839743V7.03279H21.9744C20.4597 7.03279 19.2274 8.26508 19.2274 9.77984V14.4659H8.41112C6.89636 14.4659 5.66406 15.6981 5.66406 17.2129V32.9647C5.66406 33.4285 6.04023 33.8044 6.50373 33.8044ZM26.8512 2.27456L30.0057 4.04626H26.8512V2.27456ZM28.1067 32.125H23.9161V25.6687C23.9161 24.7477 24.8286 23.9988 25.9501 23.9988H26.0723C27.1938 23.9988 28.1063 24.7477 28.1063 25.6687V32.125H28.1067ZM43.6469 16.1452C44.2357 16.1452 44.7146 16.6241 44.7146 17.2129V32.125H32.795V16.1452H43.6469ZM21.9748 8.71212H30.0483C30.6371 8.71212 31.116 9.19107 31.116 9.77984V32.125H29.7863V25.6687C29.7863 23.8218 28.1204 22.3194 26.073 22.3194H25.9507C23.9033 22.3194 22.2374 23.8218 22.2374 25.6687V32.125H20.907V9.77984C20.907 9.19107 21.386 8.71212 21.9748 8.71212ZM7.3434 17.2129C7.3434 16.6241 7.82234 16.1452 8.41112 16.1452H19.2277V32.125H7.3434V17.2129Z" fill="#0F766E"/>
<path d="M36.1341 30.0078H41.4086C41.8724 30.0078 42.2482 29.632 42.2482 29.1681V25.0591C42.2482 24.5953 41.8724 24.2195 41.4086 24.2195H36.1341C35.6703 24.2195 35.2944 24.5953 35.2944 25.0591V29.1685C35.2944 29.632 35.6703 30.0078 36.1341 30.0078ZM36.9738 25.8988H40.5689V28.3288H36.9738V25.8988Z" fill="#0F766E"/>
<path d="M36.1341 23.1736H41.4086C41.8724 23.1736 42.2482 22.7977 42.2482 22.3339V18.2249C42.2482 17.7611 41.8724 17.3853 41.4086 17.3853H36.1341C35.6703 17.3853 35.2944 17.7611 35.2944 18.2249V22.3342C35.2944 22.7977 35.6703 23.1736 36.1341 23.1736ZM36.9738 19.0646H40.5689V21.4946H36.9738V19.0646Z" fill="#0F766E"/>
<path d="M15.7837 24.2195H10.5096C10.0458 24.2195 9.66992 24.5953 9.66992 25.0591V29.1685C9.66992 29.6323 10.0458 30.0081 10.5096 30.0081H15.784C16.2479 30.0081 16.6237 29.6323 16.6237 29.1685V25.0591C16.6234 24.5953 16.2475 24.2195 15.7837 24.2195ZM14.944 28.3285H11.3493V25.8985H14.9444V28.3285H14.944Z" fill="#0F766E"/>
<path d="M15.7837 17.3853H10.5096C10.0458 17.3853 9.66992 17.7611 9.66992 18.2249V22.3342C9.66992 22.7981 10.0458 23.1739 10.5096 23.1739H15.784C16.2479 23.1739 16.6237 22.7981 16.6237 22.3342V18.2249C16.6234 17.7611 16.2475 17.3853 15.7837 17.3853ZM14.944 21.4942H11.3493V19.0643H14.9444V21.4942H14.944Z" fill="#0F766E"/>
<path d="M26.0113 18.1942C28.3151 18.1942 30.1892 16.3016 30.1892 13.975C30.1892 11.6485 28.3151 9.75586 26.0113 9.75586C23.7076 9.75586 21.8335 11.6485 21.8335 13.975C21.8335 16.3016 23.7076 18.1942 26.0113 18.1942ZM26.0113 11.4352C27.3891 11.4352 28.5099 12.5745 28.5099 13.975C28.5099 15.3756 27.3891 16.5148 26.0113 16.5148C24.6336 16.5148 23.5128 15.3756 23.5128 13.975C23.5128 12.5745 24.6336 11.4352 26.0113 11.4352Z" fill="#0F766E"/>
</svg>
