<svg width="22" height="22" viewBox="0 0 22 22" fill="none" xmlns="http://www.w3.org/2000/svg">
<path d="M12.8333 11L9.625 12.8333V9.16667L12.8333 11Z" fill="#C9C9CA" stroke="#C9C9CA" stroke-width="1.5" stroke-linecap="round" stroke-linejoin="round"/>
<path d="M1.83301 11.649V10.351C1.83301 7.69725 1.83301 6.36992 2.66259 5.5165C3.49309 4.66217 4.80026 4.6255 7.41367 4.55125C8.65117 4.51642 9.91617 4.49167 10.9997 4.49167C12.0832 4.49167 13.3473 4.51642 14.5857 4.55125C17.1991 4.6255 18.5063 4.66217 19.3358 5.5165C20.1654 6.37083 20.1663 7.69817 20.1663 10.351V11.6481C20.1663 14.3027 20.1663 15.6292 19.3368 16.4835C18.5063 17.3369 17.2 17.3745 14.5857 17.4478C13.3482 17.4836 12.0832 17.5083 10.9997 17.5083C9.91617 17.5083 8.65209 17.4836 7.41367 17.4478C4.80026 17.3745 3.49309 17.3378 2.66259 16.4835C1.83209 15.6292 1.83301 14.3018 1.83301 11.649Z" stroke="#C9C9CA" stroke-width="1.5"/>
</svg>
