<svg viewBox="0 0 1024 1024" focusable="false" xmlns="http://www.w3.org/2000/svg"><path d="M512 20.5c-271.11 0-491.52 220.43-491.52 491.48 0 271.07 220.4 491.54 491.52 491.54 271 0 491.52-220.47 491.52-491.54C1003.52 240.93 782.99 20.5 512 20.5m0 951.32c-253.6 0-459.84-206.32-459.84-459.84S258.4 52.14 512 52.14c253.52 0 459.76 206.32 459.76 459.84S765.52 971.82 512 971.82" /><path d="M512 254.73c-115.34 0-209.18 93.86-209.18 209.2 0 111.35 187.45 309.07 195.42 317.42a18.98 18.98 0 0013.76 5.86h.43a18.6 18.6 0 0013.9-6.5l64.9-74.35c86.25-105.62 129.95-187.21 129.95-242.43 0-115.34-93.84-209.2-209.18-209.2M512 559a95.07 95.07 0 110-190.16A95.09 95.09 0 11512 559" /></svg>