<svg width="20" height="21" viewBox="0 0 20 21" fill="none" xmlns="http://www.w3.org/2000/svg">
<path d="M3.33366 17.1668C2.87533 17.1668 2.4831 17.0038 2.15699 16.6777C1.83088 16.3516 1.66755 15.9591 1.66699 15.5002V5.50016C1.66699 5.04183 1.83033 4.64961 2.15699 4.3235C2.48366 3.99738 2.87588 3.83405 3.33366 3.8335H16.667C17.1253 3.8335 17.5178 3.99683 17.8445 4.3235C18.1712 4.65016 18.3342 5.04238 18.3337 5.50016V15.5002C18.3337 15.9585 18.1706 16.351 17.8445 16.6777C17.5184 17.0043 17.1259 17.1674 16.667 17.1668H3.33366ZM10.0003 11.3335L3.33366 7.16683V15.5002H16.667V7.16683L10.0003 11.3335ZM10.0003 9.66683L16.667 5.50016H3.33366L10.0003 9.66683ZM3.33366 7.16683V5.50016V15.5002V7.16683Z" fill="white"/>
</svg>
