<svg width="22" height="22" viewBox="0 0 22 22" fill="none" xmlns="http://www.w3.org/2000/svg">
<path d="M7.14967 1.83333H14.8497C17.783 1.83333 20.1663 4.21667 20.1663 7.15V14.85C20.1663 16.2601 19.6062 17.6124 18.6091 18.6095C17.6121 19.6065 16.2597 20.1667 14.8497 20.1667H7.14967C4.21634 20.1667 1.83301 17.7833 1.83301 14.85V7.15C1.83301 5.73993 2.39316 4.38762 3.39022 3.39055C4.38729 2.39348 5.73961 1.83333 7.14967 1.83333ZM6.96634 3.66667C6.09113 3.66667 5.25176 4.01434 4.63289 4.63321C4.01402 5.25208 3.66634 6.09145 3.66634 6.96667V15.0333C3.66634 16.8575 5.14217 18.3333 6.96634 18.3333H15.033C15.9082 18.3333 16.7476 17.9857 17.3665 17.3668C17.9853 16.7479 18.333 15.9085 18.333 15.0333V6.96667C18.333 5.1425 16.8572 3.66667 15.033 3.66667H6.96634ZM15.8122 5.04167C16.1161 5.04167 16.4075 5.16239 16.6224 5.37727C16.8373 5.59216 16.958 5.88361 16.958 6.1875C16.958 6.49139 16.8373 6.78284 16.6224 6.99773C16.4075 7.21261 16.1161 7.33333 15.8122 7.33333C15.5083 7.33333 15.2168 7.21261 15.0019 6.99773C14.7871 6.78284 14.6663 6.49139 14.6663 6.1875C14.6663 5.88361 14.7871 5.59216 15.0019 5.37727C15.2168 5.16239 15.5083 5.04167 15.8122 5.04167ZM10.9997 6.41667C12.2153 6.41667 13.381 6.89955 14.2406 7.75909C15.1001 8.61864 15.583 9.78442 15.583 11C15.583 12.2156 15.1001 13.3814 14.2406 14.2409C13.381 15.1004 12.2153 15.5833 10.9997 15.5833C9.7841 15.5833 8.61831 15.1004 7.75877 14.2409C6.89923 13.3814 6.41634 12.2156 6.41634 11C6.41634 9.78442 6.89923 8.61864 7.75877 7.75909C8.61831 6.89955 9.7841 6.41667 10.9997 6.41667ZM10.9997 8.25C10.2703 8.25 9.57086 8.53973 9.05513 9.05546C8.53941 9.57118 8.24967 10.2707 8.24967 11C8.24967 11.7293 8.53941 12.4288 9.05513 12.9445C9.57086 13.4603 10.2703 13.75 10.9997 13.75C11.729 13.75 12.4285 13.4603 12.9442 12.9445C13.4599 12.4288 13.7497 11.7293 13.7497 11C13.7497 10.2707 13.4599 9.57118 12.9442 9.05546C12.4285 8.53973 11.729 8.25 10.9997 8.25Z" fill="#C9C9CA"/>
</svg>
