<svg width="20" height="21" viewBox="0 0 20 21" fill="none" xmlns="http://www.w3.org/2000/svg">
<path d="M9.99984 5.91667C10.5524 5.91667 11.0823 6.13616 11.473 6.52686C11.8637 6.91756 12.0832 7.44747 12.0832 8C12.0832 8.27359 12.0293 8.5445 11.9246 8.79726C11.8199 9.05002 11.6664 9.27968 11.473 9.47314C11.2795 9.66659 11.0499 9.82005 10.7971 9.92475C10.5443 10.0294 10.2734 10.0833 9.99984 10.0833C9.4473 10.0833 8.9174 9.86384 8.5267 9.47314C8.136 9.08244 7.9165 8.55253 7.9165 8C7.9165 7.44747 8.136 6.91756 8.5267 6.52686C8.9174 6.13616 9.4473 5.91667 9.99984 5.91667ZM9.99984 2.16667C11.5469 2.16667 13.0307 2.78125 14.1246 3.87521C15.2186 4.96917 15.8332 6.4529 15.8332 8C15.8332 12.375 9.99984 18.8333 9.99984 18.8333C9.99984 18.8333 4.1665 12.375 4.1665 8C4.1665 6.4529 4.78109 4.96917 5.87505 3.87521C6.96901 2.78125 8.45274 2.16667 9.99984 2.16667ZM9.99984 3.83333C8.89477 3.83333 7.83496 4.27232 7.05356 5.05372C6.27216 5.83512 5.83317 6.89493 5.83317 8C5.83317 8.83333 5.83317 10.5 9.99984 16.0917C14.1665 10.5 14.1665 8.83333 14.1665 8C14.1665 6.89493 13.7275 5.83512 12.9461 5.05372C12.1647 4.27232 11.1049 3.83333 9.99984 3.83333Z" fill="#C9C9CA"/>
</svg>
