<svg width="22" height="22" viewBox="0 0 22 22" fill="none" xmlns="http://www.w3.org/2000/svg">
<path fill-rule="evenodd" clip-rule="evenodd" d="M3.66634 11C3.66647 9.58875 4.07381 8.20751 4.83948 7.02202C5.60515 5.83653 6.69662 4.89715 7.98293 4.3166C9.26924 3.73604 10.6957 3.53898 12.0913 3.74905C13.4868 3.95912 14.7921 4.5674 15.8505 5.50091C16.9089 6.43442 17.6754 7.65349 18.0582 9.01185C18.4409 10.3702 18.4236 11.8102 18.0082 13.1589C17.5929 14.5077 16.7972 15.7079 15.7166 16.6157C14.6361 17.5234 13.3165 18.1001 11.9163 18.2765V12.8333H13.7497C13.9928 12.8333 14.2259 12.7368 14.3979 12.5648C14.5698 12.3929 14.6663 12.1598 14.6663 11.9167C14.6663 11.6736 14.5698 11.4404 14.3979 11.2685C14.2259 11.0966 13.9928 11 13.7497 11H11.9163V9.16667C11.9163 8.92355 12.0129 8.69039 12.1848 8.51849C12.3567 8.34658 12.5899 8.25 12.833 8.25H13.2913C13.5345 8.25 13.7676 8.15342 13.9395 7.98151C14.1114 7.80961 14.208 7.57645 14.208 7.33333C14.208 7.09022 14.1114 6.85706 13.9395 6.68515C13.7676 6.51324 13.5345 6.41667 13.2913 6.41667H12.833C12.1037 6.41667 11.4042 6.7064 10.8885 7.22212C10.3727 7.73785 10.083 8.43732 10.083 9.16667V11H8.24967C8.00656 11 7.7734 11.0966 7.60149 11.2685C7.42958 11.4404 7.33301 11.6736 7.33301 11.9167C7.33301 12.1598 7.42958 12.3929 7.60149 12.5648C7.7734 12.7368 8.00656 12.8333 8.24967 12.8333H10.083V18.2765C8.31074 18.0532 6.6809 17.1907 5.49945 15.851C4.318 14.5112 3.66617 12.7863 3.66634 11ZM10.9997 20.1667C16.0624 20.1667 20.1663 16.0628 20.1663 11C20.1663 5.93725 16.0624 1.83333 10.9997 1.83333C5.93692 1.83333 1.83301 5.93725 1.83301 11C1.83301 16.0628 5.93692 20.1667 10.9997 20.1667Z" fill="#C9C9CA"/>
</svg>
