<svg width="28" height="29" viewBox="0 0 28 29" fill="none" xmlns="http://www.w3.org/2000/svg">
<g clip-path="url(#clip0_65_535)">
<path d="M27.5898 27.6797H23.9805V10.043C23.9805 9.93419 23.9373 9.82986 23.8603 9.75294C23.7834 9.67603 23.6791 9.63281 23.5703 9.63281H19.5852C19.4765 9.63281 19.3721 9.67603 19.2952 9.75294C19.2183 9.82986 19.1751 9.93419 19.1751 10.043C19.1751 10.1517 19.2183 10.2561 19.2952 10.333C19.3721 10.4099 19.4765 10.4531 19.5852 10.4531H23.1602V12.6406H4.83984V10.4531H8.41477C8.52355 10.4531 8.62787 10.4099 8.70479 10.333C8.78171 10.2561 8.82492 10.1517 8.82492 10.043C8.82492 9.93419 8.78171 9.82986 8.70479 9.75294C8.62787 9.67603 8.52355 9.63281 8.41477 9.63281H4.42969C4.32091 9.63281 4.21658 9.67603 4.13966 9.75294C4.06274 9.82986 4.01953 9.93419 4.01953 10.043V27.6797H0.410156C0.301376 27.6797 0.197051 27.7229 0.120132 27.7998C0.0432128 27.8767 0 27.9811 0 28.0898C0 28.1986 0.0432128 28.3029 0.120132 28.3799C0.197051 28.4568 0.301376 28.5 0.410156 28.5H27.5898C27.6986 28.5 27.8029 28.4568 27.8799 28.3799C27.9568 28.3029 28 28.1986 28 28.0898C28 27.9811 27.9568 27.8767 27.8799 27.7998C27.8029 27.7229 27.6986 27.6797 27.5898 27.6797ZM4.83984 17.2891H5.52344C5.63222 17.2891 5.73654 17.2459 5.81346 17.1689C5.89038 17.092 5.93359 16.9877 5.93359 16.8789C5.93359 16.7701 5.89038 16.6658 5.81346 16.5889C5.73654 16.512 5.63222 16.4688 5.52344 16.4688H4.83984V15.6484H23.1602V16.4688H22.4766C22.3678 16.4688 22.2635 16.512 22.1865 16.5889C22.1096 16.6658 22.0664 16.7701 22.0664 16.8789C22.0664 16.9877 22.1096 17.092 22.1865 17.1689C22.2635 17.2459 22.3678 17.2891 22.4766 17.2891H23.1602V25.4922H13.8633V20.4336C13.8633 20.3248 13.8201 20.2205 13.7431 20.1436C13.6662 20.0666 13.5619 20.0234 13.4531 20.0234H7.98438C7.87559 20.0234 7.77127 20.0666 7.69435 20.1436C7.61743 20.2205 7.57422 20.3248 7.57422 20.4336V25.4922H4.83984V17.2891ZM8.39453 20.8438H13.043V27.6797H8.39453V20.8438ZM13.8633 26.3125H23.1602V27.6797H13.8633V26.3125ZM23.1602 13.4609V14.8281H4.83984V13.4609H23.1602ZM4.83984 26.3125H7.57422V27.6797H4.83984V26.3125Z" fill="white"/>
<path d="M8.53125 17.2891C8.64003 17.2891 8.74435 17.2459 8.82127 17.1689C8.89819 17.092 8.94141 16.9877 8.94141 16.8789C8.94141 16.7701 8.89819 16.6658 8.82127 16.5889C8.74435 16.512 8.64003 16.4688 8.53125 16.4688H7.4375C7.32872 16.4688 7.2244 16.512 7.14748 16.5889C7.07056 16.6658 7.02734 16.7701 7.02734 16.8789C7.02734 16.9877 7.07056 17.092 7.14748 17.1689C7.2244 17.2459 7.32872 17.2891 7.4375 17.2891H8.53125Z" fill="white"/>
<path d="M10.4453 17.2891H11.5391C11.6478 17.2891 11.7522 17.2459 11.8291 17.1689C11.906 17.092 11.9492 16.9877 11.9492 16.8789C11.9492 16.7701 11.906 16.6658 11.8291 16.5889C11.7522 16.512 11.6478 16.4688 11.5391 16.4688H10.4453C10.3365 16.4688 10.2322 16.512 10.1553 16.5889C10.0784 16.6658 10.0352 16.7701 10.0352 16.8789C10.0352 16.9877 10.0784 17.092 10.1553 17.1689C10.2322 17.2459 10.3365 17.2891 10.4453 17.2891Z" fill="white"/>
<path d="M13.4531 17.2891H14.5469C14.6557 17.2891 14.76 17.2459 14.8369 17.1689C14.9138 17.092 14.957 16.9877 14.957 16.8789C14.957 16.7701 14.9138 16.6658 14.8369 16.5889C14.76 16.512 14.6557 16.4688 14.5469 16.4688H13.4531C13.3443 16.4688 13.24 16.512 13.1631 16.5889C13.0862 16.6658 13.043 16.7701 13.043 16.8789C13.043 16.9877 13.0862 17.092 13.1631 17.1689C13.24 17.2459 13.3443 17.2891 13.4531 17.2891Z" fill="white"/>
<path d="M16.4609 17.2891H17.5547C17.6635 17.2891 17.7678 17.2459 17.8447 17.1689C17.9216 17.092 17.9648 16.9877 17.9648 16.8789C17.9648 16.7701 17.9216 16.6658 17.8447 16.5889C17.7678 16.512 17.6635 16.4688 17.5547 16.4688H16.4609C16.3522 16.4688 16.2478 16.512 16.1709 16.5889C16.094 16.6658 16.0508 16.7701 16.0508 16.8789C16.0508 16.9877 16.094 17.092 16.1709 17.1689C16.2478 17.2459 16.3522 17.2891 16.4609 17.2891Z" fill="white"/>
<path d="M19.4688 17.2891H20.5625C20.6713 17.2891 20.7756 17.2459 20.8525 17.1689C20.9294 17.092 20.9727 16.9877 20.9727 16.8789C20.9727 16.7701 20.9294 16.6658 20.8525 16.5889C20.7756 16.512 20.6713 16.4688 20.5625 16.4688H19.4688C19.36 16.4688 19.2556 16.512 19.1787 16.5889C19.1018 16.6658 19.0586 16.7701 19.0586 16.8789C19.0586 16.9877 19.1018 17.092 19.1787 17.1689C19.2556 17.2459 19.36 17.2891 19.4688 17.2891Z" fill="white"/>
<path d="M12.2223 4.46484C12.2223 4.3768 12.2256 4.28875 12.2321 4.20125C11.9756 4.43879 11.7697 4.72564 11.6267 5.04463C11.4837 5.36362 11.4066 5.70819 11.3999 6.05771C11.3932 6.40722 11.4571 6.75449 11.5878 7.07872C11.7185 7.40295 11.9132 7.69748 12.1604 7.94467C12.4076 8.19186 12.7021 8.38662 13.0264 8.5173C13.3506 8.64798 13.6979 8.71189 14.0474 8.70519C14.3969 8.6985 14.7415 8.62134 15.0604 8.47834C15.3794 8.33534 15.6663 8.12944 15.9038 7.87297C15.8163 7.87953 15.7283 7.88281 15.6402 7.88281C14.734 7.8818 13.8653 7.52137 13.2245 6.88059C12.5837 6.23982 12.2233 5.37103 12.2223 4.46484Z" fill="#37373F"/>
<path d="M14 0.5C12.8913 0.5 11.8076 0.828755 10.8858 1.44469C9.96396 2.06063 9.24549 2.93608 8.82122 3.96035C8.39696 4.98461 8.28595 6.11169 8.50224 7.19904C8.71853 8.2864 9.2524 9.28519 10.0363 10.0691C10.8203 10.8531 11.8191 11.3869 12.9064 11.6032C13.9938 11.8195 15.1209 11.7085 16.1451 11.2842C17.1694 10.86 18.0448 10.1415 18.6608 9.2197C19.2767 8.29789 19.6055 7.21413 19.6055 6.10547C19.6039 4.61929 19.0128 3.19445 17.9619 2.14356C16.911 1.09268 15.4862 0.501592 14 0.5ZM15.0938 4.32812H15.2305V3.91797C15.2305 3.80919 15.2737 3.70486 15.3506 3.62794C15.4275 3.55102 15.5318 3.50781 15.6406 3.50781C15.7494 3.50781 15.8537 3.55102 15.9307 3.62794C16.0076 3.70486 16.0508 3.80919 16.0508 3.91797V4.32812H16.1875C16.2963 4.32812 16.4006 4.37134 16.4775 4.44826C16.5544 4.52518 16.5977 4.6295 16.5977 4.73828C16.5977 4.84706 16.5544 4.95139 16.4775 5.02831C16.4006 5.10522 16.2963 5.14844 16.1875 5.14844H16.0508V5.55859C16.0508 5.66737 16.0076 5.7717 15.9307 5.84862C15.8537 5.92554 15.7494 5.96875 15.6406 5.96875C15.5318 5.96875 15.4275 5.92554 15.3506 5.84862C15.2737 5.7717 15.2305 5.66737 15.2305 5.55859V5.14844H15.0938C14.985 5.14844 14.8806 5.10522 14.8037 5.02831C14.7268 4.95139 14.6836 4.84706 14.6836 4.73828C14.6836 4.6295 14.7268 4.52518 14.8037 4.44826C14.8806 4.37134 14.985 4.32812 15.0938 4.32812ZM17.1615 7.4032C16.9477 7.92394 16.6086 8.38381 16.1743 8.74195C15.74 9.10008 15.224 9.34539 14.6721 9.45608C14.1202 9.56677 13.5494 9.53941 13.0106 9.37643C12.4718 9.21345 11.9816 8.9199 11.5836 8.52186C11.1856 8.12383 10.892 7.63363 10.729 7.09483C10.5661 6.55603 10.5387 5.98531 10.6494 5.43339C10.7601 4.88147 11.0054 4.36544 11.3635 3.93115C11.7217 3.49686 12.1815 3.15776 12.7023 2.94398C12.7771 2.91317 12.8595 2.9052 12.9388 2.92109C13.0182 2.93697 13.0911 2.976 13.1484 3.03325C13.2056 3.0905 13.2447 3.16341 13.2606 3.2428C13.2764 3.32219 13.2685 3.4045 13.2377 3.47937C13.042 3.95354 12.9912 4.47503 13.0916 4.97804C13.192 5.48106 13.4392 5.94306 13.8019 6.30576C14.1646 6.66847 14.6266 6.91562 15.1296 7.01604C15.6326 7.11645 16.1541 7.06564 16.6283 6.87C16.7032 6.83919 16.7855 6.83122 16.8649 6.84711C16.9442 6.86299 17.0172 6.90202 17.0744 6.95926C17.1317 7.01651 17.1707 7.08943 17.1866 7.16882C17.2025 7.24821 17.1945 7.33052 17.1637 7.40539L17.1615 7.4032Z" fill="#37373F"/>
</g>
<defs>
<clipPath id="clip0_65_535">
<rect width="28" height="28" fill="white" transform="translate(0 0.5)"/>
</clipPath>
</defs>
</svg>
