<svg width="50" height="50" viewBox="0 0 50 50" fill="none" xmlns="http://www.w3.org/2000/svg">
<g clip-path="url(#clip0_65_392)">
<path d="M49.2676 30.6153C49.4618 30.6153 49.6481 30.5381 49.7855 30.4007C49.9228 30.2634 50 30.0771 50 29.8828C50 29.6886 49.9228 29.5023 49.7855 29.3649C49.6481 29.2276 49.4618 29.1504 49.2676 29.1504H48.6816V15.9668H49.2676C49.4618 15.9668 49.6481 15.8897 49.7855 15.7523C49.9228 15.615 50 15.4287 50 15.2344C50 15.0402 49.9228 14.8539 49.7855 14.7165C49.6481 14.5792 49.4618 14.502 49.2676 14.502H48.6816V13.2813C48.6805 12.4374 48.3885 11.6197 47.8549 10.966C47.3212 10.3122 46.5785 9.86245 45.752 9.69242V7.91019C45.752 7.71594 45.6748 7.52964 45.5374 7.39229C45.4001 7.25493 45.2138 7.17777 45.0195 7.17777C44.8253 7.17777 44.639 7.25493 44.5016 7.39229C44.3643 7.52964 44.2871 7.71594 44.2871 7.91019V9.69242C43.4605 9.86245 42.7178 10.3122 42.1842 10.966C41.6505 11.6197 41.3585 12.4374 41.3574 13.2813V14.502H40.7715C40.5772 14.502 40.3909 14.5792 40.2536 14.7165C40.1162 14.8539 40.0391 15.0402 40.0391 15.2344C40.0391 15.4287 40.1162 15.615 40.2536 15.7523C40.3909 15.8897 40.5772 15.9668 40.7715 15.9668H41.3574V29.1504H40.7715C40.5772 29.1504 40.3909 29.2276 40.2536 29.3649C40.1162 29.5023 40.0391 29.6886 40.0391 29.8828C40.0391 30.0771 40.1162 30.2634 40.2536 30.4007C40.3909 30.5381 40.5772 30.6153 40.7715 30.6153H41.3574V33.8868H37.4512V24.6094H38.1836C38.7451 24.6093 39.2852 24.3942 39.6931 24.0083C40.1009 23.6224 40.3456 23.095 40.3769 22.5344C40.4081 21.9738 40.2235 21.4225 39.8611 20.9937C39.4986 20.5649 38.9857 20.2911 38.4277 20.2285V18.8828C38.4277 15.0303 36.1426 11.6309 32.8701 10.6172L32.7725 10.5879C30.2158 9.79788 26.6748 6.79691 25.7305 5.96976V4.7598C26.2807 4.66862 26.7885 4.40736 27.1826 4.01273C27.3161 3.87465 27.39 3.68968 27.3884 3.49764C27.3869 3.3056 27.3099 3.12186 27.1742 2.986C27.0385 2.85014 26.8548 2.77302 26.6627 2.77126C26.4707 2.7695 26.2857 2.84324 26.1475 2.97659C25.9163 3.19428 25.6094 3.31332 25.2919 3.30847C24.9744 3.30361 24.6713 3.17524 24.4469 2.95059C24.2225 2.72594 24.0945 2.42269 24.09 2.10519C24.0855 1.7877 24.2049 1.48095 24.4229 1.25003C24.5562 1.11183 24.6299 0.926786 24.6282 0.734748C24.6264 0.542709 24.5493 0.359044 24.4134 0.223311C24.2776 0.087577 24.0938 0.0106356 23.9018 0.00905795C23.7098 0.00748033 23.5248 0.0813928 23.3867 0.214876C23.0738 0.527652 22.843 0.912889 22.7149 1.33635C22.5867 1.7598 22.5652 2.20836 22.6522 2.64215C22.7391 3.07594 22.9319 3.48152 23.2134 3.82285C23.4949 4.16418 23.8563 4.43068 24.2656 4.59866V5.96585C23.3213 6.793 19.7803 9.793 17.2236 10.584L17.126 10.6133C13.8525 11.627 11.5674 15.0264 11.5674 18.8789V20.2246C11.0004 20.2768 10.4757 20.5471 10.1041 20.9785C9.73243 21.4099 9.54276 21.9687 9.57505 22.5372C9.60734 23.1057 9.85906 23.6395 10.2772 24.0261C10.6953 24.4126 11.2471 24.6217 11.8164 24.6094H12.5488V33.8868H8.64258V30.6153H9.22852C9.42277 30.6153 9.60906 30.5381 9.74642 30.4007C9.88377 30.2634 9.96094 30.0771 9.96094 29.8828C9.96094 29.6886 9.88377 29.5023 9.74642 29.3649C9.60906 29.2276 9.42277 29.1504 9.22852 29.1504H8.64258V15.9668H9.22852C9.42277 15.9668 9.60906 15.8897 9.74642 15.7523C9.88377 15.615 9.96094 15.4287 9.96094 15.2344C9.96094 15.0402 9.88377 14.8539 9.74642 14.7165C9.60906 14.5792 9.42277 14.502 9.22852 14.502H8.64258V13.2813C8.64147 12.4374 8.34948 11.6197 7.81583 10.966C7.28217 10.3122 6.53947 9.86245 5.71289 9.69242V7.91019C5.71289 7.71594 5.63573 7.52964 5.49837 7.39229C5.36101 7.25493 5.17472 7.17777 4.98047 7.17777C4.78622 7.17777 4.59992 7.25493 4.46257 7.39229C4.32521 7.52964 4.24805 7.71594 4.24805 7.91019V9.69242C3.42147 9.86245 2.67877 10.3122 2.14511 10.966C1.61146 11.6197 1.31947 12.4374 1.31836 13.2813V14.502H0.732422C0.538172 14.502 0.351877 14.5792 0.214521 14.7165C0.0771656 14.8539 0 15.0402 0 15.2344C0 15.4287 0.0771656 15.615 0.214521 15.7523C0.351877 15.8897 0.538172 15.9668 0.732422 15.9668H1.31836V29.1504H0.732422C0.538172 29.1504 0.351877 29.2276 0.214521 29.3649C0.0771656 29.5023 0 29.6886 0 29.8828C0 30.0771 0.0771656 30.2634 0.214521 30.4007C0.351877 30.5381 0.538172 30.6153 0.732422 30.6153H1.31836V48.5352H0.732422C0.538172 48.5352 0.351877 48.6124 0.214521 48.7497C0.0771656 48.8871 0 49.0734 0 49.2676C0 49.4619 0.0771656 49.6482 0.214521 49.7855C0.351877 49.9229 0.538172 50 0.732422 50H49.2676C49.4618 50 49.6481 49.9229 49.7855 49.7855C49.9228 49.6482 50 49.4619 50 49.2676C50 49.0734 49.9228 48.8871 49.7855 48.7497C49.6481 48.6124 49.4618 48.5352 49.2676 48.5352H48.6816V30.6153H49.2676ZM42.8223 13.2813C42.8223 12.6985 43.0538 12.1396 43.4658 11.7276C43.8779 11.3155 44.4368 11.084 45.0195 11.084C45.6023 11.084 46.1612 11.3155 46.5732 11.7276C46.9853 12.1396 47.2168 12.6985 47.2168 13.2813V14.502H42.8223V13.2813ZM42.8223 15.9668H47.2168V29.1504H42.8223V15.9668ZM37.4512 48.5352H34.0332V45.8496C34.0332 45.3964 34.2133 44.9617 34.5338 44.6412C34.8543 44.3207 35.2889 44.1407 35.7422 44.1407C36.1954 44.1407 36.6301 44.3207 36.9506 44.6412C37.2711 44.9617 37.4512 45.3964 37.4512 45.8496V48.5352ZM35.7422 42.6758C34.9008 42.6768 34.0941 43.0116 33.4991 43.6065C32.9041 44.2015 32.5694 45.0082 32.5684 45.8496V48.5352H29.6387V44.3848C29.6387 43.1545 29.15 41.9747 28.28 41.1048C27.4101 40.2348 26.2303 39.7461 25 39.7461C23.7697 39.7461 22.5899 40.2348 21.72 41.1048C20.85 41.9747 20.3613 43.1545 20.3613 44.3848V48.5352H17.4316V45.8496C17.4316 45.0079 17.0973 44.2006 16.502 43.6054C15.9068 43.0102 15.0996 42.6758 14.2578 42.6758C13.4161 42.6758 12.6088 43.0102 12.0136 43.6054C11.4184 44.2006 11.084 45.0079 11.084 45.8496V48.5352H8.64258V38.2813H41.3574V48.5352H38.916V45.8496C38.915 45.0082 38.5803 44.2015 37.9853 43.6065C37.3903 43.0116 36.5836 42.6768 35.7422 42.6758ZM28.1738 48.5352H21.8262V44.3848C21.8262 43.543 22.1606 42.7358 22.7558 42.1406C23.351 41.5454 24.1582 41.211 25 41.211C25.8418 41.211 26.649 41.5454 27.2442 42.1406C27.8394 42.7358 28.1738 43.543 28.1738 44.3848V48.5352ZM15.9668 48.5352H12.5488V45.8496C12.5488 45.3964 12.7289 44.9617 13.0494 44.6412C13.3699 44.3207 13.8046 44.1407 14.2578 44.1407C14.7111 44.1407 15.1458 44.3207 15.4662 44.6412C15.7867 44.9617 15.9668 45.3964 15.9668 45.8496V48.5352ZM17.5645 12.0166L17.6621 11.9873C20.333 11.1612 23.7412 8.36624 25.0039 7.27542C26.2666 8.36624 29.6748 11.1612 32.3467 11.9873L32.4395 12.0166C35.1055 12.8418 36.9668 15.666 36.9668 18.8828V20.2149H13.041V18.8828C13.0371 15.666 14.8984 12.8418 17.5645 12.0166ZM11.084 22.4121C11.084 22.2179 11.1611 22.0316 11.2985 21.8942C11.4359 21.7569 11.6222 21.6797 11.8164 21.6797H38.1836C38.3778 21.6797 38.5641 21.7569 38.7015 21.8942C38.8389 22.0316 38.916 22.2179 38.916 22.4121C38.916 22.6064 38.8389 22.7927 38.7015 22.93C38.5641 23.0674 38.3778 23.1446 38.1836 23.1446H11.8164C11.6222 23.1446 11.4359 23.0674 11.2985 22.93C11.1611 22.7927 11.084 22.6064 11.084 22.4121ZM14.0137 24.6094H35.9863V33.8868H28.6621V29.7364C28.6621 28.7651 28.2763 27.8336 27.5895 27.1469C26.9027 26.4601 25.9713 26.0743 25 26.0743C24.0287 26.0743 23.0973 26.4601 22.4105 27.1469C21.7237 27.8336 21.3379 28.7651 21.3379 29.7364V33.8868H14.0137V24.6094ZM27.1973 33.8868H22.8027V29.7364C22.8027 29.1536 23.0342 28.5947 23.4463 28.1827C23.8584 27.7706 24.4172 27.5391 25 27.5391C25.5828 27.5391 26.1416 27.7706 26.5537 28.1827C26.9658 28.5947 27.1973 29.1536 27.1973 29.7364V33.8868ZM41.3574 35.3516V36.8164H8.64258V35.3516H41.3574ZM2.7832 13.2813C2.7832 12.6985 3.0147 12.1396 3.42677 11.7276C3.83883 11.3155 4.39772 11.084 4.98047 11.084C5.56322 11.084 6.1221 11.3155 6.53417 11.7276C6.94624 12.1396 7.17773 12.6985 7.17773 13.2813V14.502H2.7832V13.2813ZM2.7832 15.9668H7.17773V29.1504H2.7832V15.9668ZM2.7832 30.6153H7.17773V48.5352H2.7832V30.6153ZM47.2168 48.5352H42.8223V30.6153H47.2168V48.5352Z" fill="#0F766E"/>
</g>
<defs>
<clipPath id="clip0_65_392">
<rect width="50" height="50" fill="white"/>
</clipPath>
</defs>
</svg>
