<?xml version="1.0" standalone="no"?>
<!DOCTYPE svg PUBLIC "-//W3C//DTD SVG 20010904//EN"
 "http://www.w3.org/TR/2001/REC-SVG-20010904/DTD/svg10.dtd">
<svg version="1.0" xmlns="http://www.w3.org/2000/svg"
 width="300.000000pt" height="255.000000pt" viewBox="0 0 300.000000 255.000000"
 preserveAspectRatio="xMidYMid meet">
<metadata>
Created by potrace 1.10, written by Peter Selinger 2001-2011
</metadata>
<g transform="translate(0.000000,255.000000) scale(0.100000,-0.100000)"
fill="#000000" stroke="none">
<path d="M1715 2469 c-4 -13 -1 -27 10 -40 15 -15 16 -21 5 -34 -10 -12 -10
-19 -2 -27 16 -16 15 -28 -3 -28 -8 0 -29 -13 -46 -28 l-31 -28 0 -124 c1
-233 6 -266 11 -79 6 198 10 211 60 230 33 13 75 -5 90 -37 7 -17 11 -148 12
-412 1 -233 5 -371 10 -347 4 22 8 203 8 403 l1 364 -29 29 c-16 16 -37 29
-47 29 -16 0 -16 1 0 19 15 17 15 19 1 31 -15 12 -14 15 7 26 l23 13 -22 1
c-24 0 -43 27 -36 48 3 6 0 12 -5 12 -6 0 -14 -9 -17 -21z"/>
<path d="M1394 2045 c-4 -18 -1 -32 11 -45 17 -19 17 -21 1 -39 -17 -19 -17
-20 2 -30 25 -13 53 12 34 31 -17 17 -15 28 6 28 12 0 10 4 -8 13 -18 10 -24
20 -23 40 2 34 -15 35 -23 2z"/>
<path d="M1312 1895 c-74 -21 -108 -41 -158 -91 -52 -54 -86 -138 -87 -214 -1
-66 21 -150 33 -130 9 15 5 52 -11 92 -13 32 1 109 30 166 29 56 100 116 167
142 160 60 351 -21 409 -173 38 -100 -2 -265 -77 -319 -16 -11 -26 -23 -23
-27 2 -4 -26 -20 -62 -34 l-67 -27 -191 81 c-104 45 -225 97 -269 115 -71 31
-116 37 -116 15 0 -4 48 -28 108 -53 59 -26 187 -81 285 -123 l178 -77 202 82
c111 45 242 98 290 118 80 32 103 53 66 60 -8 1 -97 -32 -199 -74 -230 -95
-236 -96 -182 -49 71 61 87 103 87 220 0 119 -16 157 -95 228 -82 74 -209 103
-318 72z"/>
<path d="M850 1480 c0 -3 139 -66 309 -139 l310 -132 163 69 c90 38 229 96
310 128 80 32 144 62 142 66 -2 4 -28 -4 -57 -16 -125 -55 -553 -229 -562
-229 -5 0 -146 59 -312 130 -167 72 -303 127 -303 123z"/>
<path d="M1466 1178 c-66 -14 -89 -73 -40 -104 43 -29 110 -29 226 0 119 29
190 33 230 12 28 -15 45 -6 32 15 -11 19 -72 39 -117 39 -54 0 -238 -45 -248
-61 -3 -6 -15 -9 -25 -6 -18 4 -17 5 3 12 19 6 33 31 33 62 0 23 -52 40 -94
31z m45 -28 c5 0 9 -13 9 -29 0 -27 -3 -30 -30 -29 -17 1 -33 5 -36 10 -3 4
-10 8 -16 8 -6 0 -5 -7 3 -17 13 -16 12 -17 -2 -5 -32 25 9 80 49 66 8 -2 18
-4 23 -4z"/>
<path d="M492 1148 c-6 -13 -16 -77 -21 -143 -15 -189 6 -256 87 -285 23 -8
45 -22 48 -32 7 -23 21 -23 29 0 4 15 23 22 83 31 42 7 84 12 92 11 8 0 89 -3
180 -5 191 -5 219 2 247 60 16 33 16 39 2 63 -8 15 -29 31 -47 37 l-33 9 2
121 c1 67 -1 127 -5 133 -11 18 -34 14 -56 -8 -18 -18 -20 -33 -20 -135 0
-108 -1 -115 -20 -115 -29 0 -26 1 -72 -16 -38 -13 -57 -28 -58 -45 0 -4 47
-4 104 -2 58 3 113 3 122 -1 17 -6 17 -8 0 -24 -23 -23 -276 -30 -276 -7 0 7
5 17 10 20 21 13 10 66 -20 97 -29 28 -35 30 -88 25 -31 -2 -69 -10 -84 -17
-29 -14 -88 -90 -88 -114 0 -9 -7 -16 -15 -16 -31 0 -39 43 -41 210 l-3 165
-23 3 c-17 2 -28 -4 -36 -20z m27 -148 c2 -116 13 -186 33 -206 8 -8 29 -16
48 -19 18 -2 36 -8 39 -14 4 -5 18 -14 31 -20 l25 -10 -27 0 c-15 -1 -29 -5
-32 -10 -6 -9 -72 10 -106 31 -34 22 -45 66 -42 173 2 87 16 175 26 175 2 0 4
-45 5 -100z m635 -119 c11 -12 25 -21 31 -21 38 0 41 -73 4 -85 -11 -4 -17
-11 -14 -16 3 -5 -2 -6 -11 -2 -15 5 -15 8 -2 17 8 6 13 17 10 25 -3 8 0 11 7
7 7 -5 9 -1 5 9 -10 24 -38 35 -91 35 -41 1 -45 2 -28 12 11 6 22 13 25 15 2
2 5 46 5 98 1 65 5 98 16 111 12 15 15 6 19 -83 4 -81 9 -105 24 -122z m-318
-16 c26 -40 1 -65 -86 -85 -25 -5 -58 -10 -74 -10 -27 0 -28 2 -22 33 15 77
143 122 182 62z m43 -93 c3 -6 18 -15 31 -21 22 -9 20 -10 -20 -10 -56 -1 -79
11 -61 32 13 17 39 16 50 -1z m186 -37 c6 -2 -18 -4 -53 -4 -35 -1 -61 3 -58
8 5 8 85 5 111 -4z"/>
<path d="M738 1153 c-24 -28 -28 -52 -20 -128 6 -62 10 -70 29 -73 32 -5 42
24 38 115 -4 105 -14 123 -47 86z m13 -85 c1 -24 3 -55 5 -70 4 -38 -12 -35
-20 3 -9 48 -7 109 4 109 6 0 11 -19 11 -42z"/>
<path d="M1270 1146 c-21 -41 -18 -258 5 -330 21 -62 71 -126 98 -126 23 0 33
48 17 74 -47 74 -62 160 -53 303 l6 103 -30 0 c-21 0 -33 -7 -43 -24z m34 -92
c-7 -98 10 -202 41 -264 28 -56 32 -82 10 -74 -37 15 -97 173 -75 199 9 11 9
19 2 28 -7 8 -8 26 -2 52 5 21 7 42 4 47 -5 8 14 88 21 88 2 0 2 -34 -1 -76z"/>
<path d="M2103 1125 c-25 -24 -42 -38 -39 -30 6 18 -51 67 -73 63 -32 -6 -24
-38 13 -53 20 -8 43 -26 52 -40 19 -30 29 -25 52 23 14 30 23 37 46 37 32 0
47 22 25 36 -23 14 -30 11 -76 -36z"/>
<path d="M2580 1145 c-6 -8 -9 -22 -6 -32 4 -12 -5 -30 -25 -51 -40 -42 -30
-53 16 -18 36 28 65 73 65 101 0 19 -34 20 -50 0z"/>
<path d="M426 1118 c-7 -13 -17 -36 -20 -52 -6 -26 -9 -27 -24 -13 -34 29 -61
38 -82 27 -11 -6 -20 -18 -20 -26 0 -12 -7 -14 -30 -9 -75 17 -189 -83 -198
-174 -4 -43 -1 -52 27 -84 18 -20 48 -41 68 -48 48 -16 140 -6 191 20 52 26
112 79 112 97 0 19 -8 18 -52 -5 -44 -24 -144 -51 -188 -51 -43 0 -90 47 -90
90 0 42 22 83 55 100 60 32 153 2 141 -46 -8 -32 8 -31 23 2 14 32 7 60 -20
74 -20 11 -26 40 -8 40 6 0 33 -16 59 -35 26 -19 50 -32 54 -28 3 3 6 20 6 37
0 17 9 46 20 64 24 39 24 42 5 42 -8 0 -21 -10 -29 -22z m-312 -288 c21 -37
64 -60 111 -60 19 0 35 -4 35 -10 0 -15 -97 -12 -129 4 -33 17 -61 57 -61 85
0 28 22 18 44 -19z"/>
<path d="M2268 1126 c-39 -29 -20 -36 96 -36 88 0 116 3 126 15 16 20 8 22
-110 29 -69 3 -100 1 -112 -8z"/>
<path d="M613 1105 c-18 -8 -33 -19 -33 -26 0 -7 7 -8 18 -4 9 4 27 10 39 12
12 3 28 11 34 19 15 19 -14 18 -58 -1z"/>
<path d="M829 1104 c-21 -26 7 -34 96 -27 157 11 168 43 16 43 -78 0 -101 -3
-112 -16z"/>
<path d="M675 1077 c-4 -10 -14 -16 -21 -13 -8 3 -19 -4 -25 -16 -11 -20 -13
-20 -24 -5 -11 15 -14 15 -25 3 -6 -9 -9 -20 -5 -26 8 -13 55 -13 55 0 0 6 8
10 19 10 24 0 44 24 38 47 -4 17 -4 17 -12 0z"/>
<path d="M952 1029 c-40 -32 -22 -79 30 -79 36 0 64 39 49 68 -14 27 -53 32
-79 11z m40 -45 c-5 -25 -6 -26 -25 -18 -13 5 -14 10 -6 26 13 24 35 18 31 -8z"/>
<path d="M1821 1024 c-12 -9 -21 -26 -21 -42 0 -145 -151 -253 -265 -189 -51
28 -83 87 -67 123 17 35 58 42 103 16 50 -29 56 -28 64 9 8 37 -12 63 -62 80
-86 28 -193 -49 -193 -140 0 -73 45 -136 123 -171 90 -41 212 -12 274 66 73
93 91 147 53 157 -15 4 -20 14 -20 36 0 25 3 29 18 24 9 -3 22 -10 29 -15 6
-5 33 -18 60 -28 39 -16 43 -19 21 -20 -15 0 -38 4 -52 10 -14 5 -26 6 -26 1
0 -22 76 -28 126 -11 30 11 64 58 64 88 -1 15 -2 15 -13 2 -23 -30 -62 -50
-96 -50 -25 0 -41 8 -66 34 -30 32 -34 34 -54 20z m-236 -40 c14 -9 25 -25 25
-35 0 -19 -1 -19 -36 0 -64 35 -134 4 -134 -58 0 -40 46 -103 91 -125 54 -26
121 -22 178 10 l46 26 -50 -46 c-47 -44 -52 -46 -107 -46 -89 0 -170 51 -197
123 -13 34 -14 80 -3 73 5 -3 15 6 23 21 19 34 77 73 112 73 15 0 39 -7 52
-16z"/>
<path d="M2624 1022 c-43 -22 -75 -53 -90 -89 -12 -28 -12 -38 0 -65 18 -43
59 -77 99 -84 30 -5 29 -3 -14 20 -51 28 -64 40 -74 76 -6 24 -6 24 13 -4 11
-15 33 -37 48 -47 27 -17 110 -50 142 -55 34 -6 18 -13 -45 -20 -83 -9 -162 6
-215 41 -45 30 -58 32 -34 6 10 -11 41 -29 69 -41 63 -27 167 -29 272 -6 39 9
81 17 94 19 14 2 26 8 28 14 2 6 -34 12 -89 16 -184 11 -253 42 -246 109 2 24
11 37 37 52 31 18 37 18 75 5 33 -11 42 -19 44 -41 3 -21 -1 -27 -20 -30 -34
-5 -28 -23 9 -26 25 -3 39 3 58 24 35 37 33 76 -5 108 -45 37 -105 44 -156 18z
m132 -34 c18 -18 22 -60 7 -65 -8 -3 -13 4 -13 16 0 26 -36 51 -75 51 -21 0
-26 3 -16 9 20 13 81 6 97 -11z"/>
<path d="M1686 1009 c-33 -26 -33 -54 0 -76 30 -20 51 -11 74 31 14 26 14 28
-9 47 -29 24 -32 24 -65 -2z m42 -44 c-2 -26 -13 -31 -37 -16 -12 8 -12 12 -2
25 21 25 41 20 39 -9z"/>
<path d="M2210 1017 c-39 -14 -96 -83 -135 -164 -13 -29 -36 -60 -51 -69 -32
-22 -131 -30 -173 -16 -39 14 -46 2 -20 -32 48 -61 149 -75 225 -31 48 28 101
102 109 151 3 19 7 50 10 69 6 37 31 56 93 70 24 5 33 3 38 -9 3 -9 10 -16 16
-16 5 0 7 4 4 9 -3 4 8 6 25 2 25 -5 37 -17 59 -60 16 -29 41 -66 56 -82 25
-26 85 -62 92 -54 2 1 -19 24 -47 50 -28 26 -62 72 -77 101 -32 66 -35 68
-108 83 -71 13 -71 13 -116 -2z m-94 -200 c-30 -59 -114 -127 -156 -127 -30 0
-104 33 -115 51 -6 9 -3 10 11 4 10 -5 42 -10 69 -12 75 -6 131 26 175 101 41
70 53 57 16 -17z"/>
<path d="M2242 964 c-54 -37 -47 -116 14 -184 57 -63 139 -67 169 -10 14 27
14 31 1 36 -8 3 -19 28 -25 55 -6 28 -18 63 -26 80 -15 27 -19 29 -53 23 -20
-3 -41 -10 -46 -15 -18 -16 -27 -9 -16 11 13 24 11 25 -18 4z m123 -38 c29
-68 25 -146 -6 -146 -6 0 -26 15 -45 34 -27 27 -34 42 -34 73 0 34 4 41 33 56
17 8 33 16 35 16 2 1 9 -14 17 -33z m-109 -63 c6 -32 60 -90 89 -97 14 -4 25
-11 25 -16 0 -13 -47 -2 -78 18 -28 18 -72 91 -72 120 0 24 24 36 28 13 1 -9
5 -26 8 -38z"/>
<path d="M2844 921 c-11 -18 -30 -46 -42 -62 l-24 -29 41 -1 c23 -1 46 -2 51
-3 25 -3 7 20 -20 24 l-30 5 25 38 c15 21 24 43 22 50 -2 7 -13 -3 -23 -22z"/>
<path d="M1908 886 c-21 -15 -23 -47 -6 -64 37 -37 112 13 88 58 -12 23 -56
26 -82 6z m46 -40 c-4 -11 -8 -22 -9 -24 -6 -7 -45 19 -45 29 0 6 4 8 9 5 5
-3 11 1 15 9 9 24 38 6 30 -19z"/>
<path d="M2182 778 c-30 -30 -3 -83 39 -76 29 4 35 24 9 31 -14 3 -20 13 -20
31 0 28 -9 33 -28 14z"/>
<path d="M390 755 c-26 -27 -22 -47 12 -69 43 -27 103 51 63 81 -28 19 -49 16
-75 -12z m41 -29 c-6 -7 -8 -16 -4 -19 3 -4 2 -7 -3 -7 -6 0 -15 5 -22 12 -9
9 -7 14 6 24 20 15 37 7 23 -10z"/>
<path d="M2431 730 c-19 -16 -32 -32 -28 -36 3 -3 18 6 32 20 24 24 28 25 48
11 25 -18 60 -20 55 -3 -2 6 -12 12 -22 14 -10 1 -23 7 -29 13 -15 15 -17 14
-56 -19z"/>
<path d="M1227 728 c-15 -11 -24 -24 -21 -30 4 -5 13 -3 24 7 12 11 20 13 25
6 9 -15 35 -14 35 2 0 7 -8 17 -18 23 -14 9 -24 8 -45 -8z"/>
<path d="M1760 715 c-19 -20 -20 -25 -7 -25 9 0 19 5 22 10 3 6 18 7 33 4 27
-7 27 -7 8 15 -24 27 -27 26 -56 -4z"/>
<path d="M972 464 c3 -86 5 -98 27 -115 75 -61 171 37 111 114 -25 32 -53 41
-80 27 -19 -10 -20 -8 -20 30 0 34 -3 40 -21 40 -20 0 -21 -4 -17 -96z m112
-25 c8 -12 12 -29 9 -38 -6 -17 -32 -41 -44 -41 -16 0 -39 32 -39 54 0 46 48
62 74 25z"/>
<path d="M1600 446 c0 -104 2 -116 18 -116 15 0 17 12 16 112 -1 97 -3 113
-17 116 -15 3 -17 -10 -17 -112z"/>
<path d="M2010 445 c0 -94 3 -115 15 -115 10 0 15 15 17 56 2 40 8 60 20 67
29 19 48 -9 48 -69 0 -45 3 -54 18 -54 15 0 17 8 14 62 -4 74 -21 98 -69 98
-31 0 -33 2 -33 35 0 24 -5 35 -15 35 -12 0 -15 -19 -15 -115z"/>
<path d="M2360 526 c0 -19 -6 -36 -12 -39 -10 -3 -10 -9 0 -26 6 -11 12 -34
12 -51 0 -38 39 -80 75 -80 18 0 25 5 25 20 0 15 -7 20 -25 20 -28 0 -35 10
-38 56 -2 27 0 29 31 26 26 -3 32 0 32 17 0 15 -8 20 -32 23 -31 3 -33 5 -30
36 3 27 0 32 -17 32 -17 0 -21 -6 -21 -34z"/>
<path d="M2490 529 c0 -17 -5 -39 -10 -50 -6 -10 -7 -19 -2 -19 5 0 12 -21 15
-47 6 -52 33 -83 73 -83 36 0 33 38 -3 42 -25 3 -28 7 -31 46 l-3 44 30 -7
c27 -6 31 -4 31 14 0 17 -6 21 -30 21 -28 0 -30 3 -30 35 0 28 -4 35 -20 35
-16 0 -20 -7 -20 -31z"/>
<path d="M2792 464 c3 -86 5 -98 27 -115 48 -39 115 -15 127 46 11 61 -44 118
-92 96 -23 -10 -24 -9 -24 29 0 34 -3 40 -21 40 -20 0 -21 -4 -17 -96z m106
-16 c36 -36 -4 -101 -48 -78 -37 20 -21 90 20 90 9 0 21 -5 28 -12z"/>
<path d="M103 530 c-90 -55 -49 -200 57 -200 105 0 146 146 56 201 -40 24 -73
24 -113 -1z m107 -40 c44 -44 12 -123 -50 -123 -40 0 -70 32 -70 74 0 59 78
91 120 49z"/>
<path d="M900 440 c0 -103 1 -110 20 -110 19 0 20 7 20 110 0 103 -1 110 -20
110 -19 0 -20 -7 -20 -110z"/>
<path d="M1454 540 c-41 -16 -54 -49 -54 -132 0 -71 2 -78 20 -78 15 0 20 7
20 25 0 23 4 25 45 25 42 0 45 -2 45 -26 0 -19 5 -25 17 -22 16 3 17 13 15 78
-4 97 -8 107 -42 125 -33 17 -36 17 -66 5z m58 -47 c10 -9 18 -30 18 -50 0
-33 -1 -33 -45 -33 l-45 0 0 40 c0 27 6 42 18 49 24 14 33 13 54 -6z"/>
<path d="M1824 440 c1 -105 2 -110 22 -110 16 0 20 5 17 23 -2 12 5 33 15 46
l19 24 24 -44 c16 -30 32 -45 48 -47 23 -4 23 -3 -12 60 l-35 63 35 49 c35 46
35 48 12 44 -15 -2 -36 -21 -59 -55 -19 -29 -38 -52 -42 -53 -5 0 -8 25 -8 55
0 47 -3 55 -18 55 -17 0 -19 -9 -18 -110z"/>
<path d="M538 470 c-26 -27 -30 -36 -25 -68 4 -20 16 -45 28 -54 24 -20 69
-24 87 -6 8 8 15 8 27 -2 13 -11 15 -3 15 71 0 60 -3 80 -11 72 -8 -8 -18 -7
-37 3 -39 20 -50 18 -84 -16z m80 -22 c36 -36 -4 -101 -48 -78 -37 20 -21 90
20 90 9 0 21 -5 28 -12z"/>
<path d="M2220 493 c-35 -13 -50 -37 -50 -79 0 -69 55 -105 111 -71 17 10 23
10 26 0 12 -33 18 -6 15 68 -3 60 -7 78 -15 70 -8 -6 -19 -5 -31 5 -21 15 -31
16 -56 7z m52 -50 c10 -9 18 -22 18 -30 0 -15 -35 -53 -49 -53 -17 0 -41 31
-41 54 0 43 39 59 72 29z"/>
<path d="M2653 490 c-28 -11 -43 -40 -43 -83 0 -59 59 -94 111 -66 15 8 24 7
37 -3 14 -11 15 -11 9 5 -4 10 -7 49 -7 85 0 42 -4 62 -9 53 -7 -11 -13 -11
-32 3 -26 18 -34 19 -66 6z m61 -46 c22 -22 20 -50 -6 -68 -39 -28 -81 13 -60
60 13 28 43 31 66 8z"/>
<path d="M290 408 c0 -71 2 -78 20 -78 16 0 19 8 22 63 2 47 7 62 18 62 11 0
16 -15 18 -62 3 -55 6 -63 22 -63 18 0 20 7 20 59 0 63 11 81 36 60 11 -9 15
-27 13 -63 -3 -41 0 -52 14 -54 15 -3 17 6 17 61 0 88 -11 96 -118 94 l-82 -1
0 -78z"/>
<path d="M700 410 c0 -72 2 -81 17 -78 14 3 17 11 15 40 -5 58 5 78 39 78 22
0 29 5 29 20 0 15 -7 20 -29 20 -17 0 -33 -5 -36 -10 -5 -8 -11 -7 -21 1 -12
10 -14 -1 -14 -71z"/>
<path d="M1150 408 c0 -71 2 -78 20 -78 18 0 20 7 20 59 0 43 4 60 15 65 33
12 45 -4 45 -65 0 -52 2 -59 20 -59 18 0 20 7 20 60 0 80 -20 102 -90 98 l-50
-3 0 -77z"/>
<path d="M1670 440 c0 -18 7 -20 60 -20 53 0 60 2 60 20 0 18 -7 20 -60 20
-53 0 -60 -2 -60 -20z"/>
<path d="M1570 240 c0 -16 -4 -30 -10 -30 -5 0 -10 -9 -10 -20 0 -11 5 -20 10
-20 6 0 10 -17 10 -38 0 -45 24 -72 63 -72 37 0 35 26 -3 34 -27 5 -30 10 -30
41 0 32 2 35 30 35 23 0 30 4 30 20 0 16 -7 20 -30 20 -27 0 -30 3 -30 30 0
20 -5 30 -15 30 -10 0 -15 -10 -15 -30z"/>
<path d="M1108 237 c-63 -59 -40 -156 43 -182 29 -9 89 13 82 31 -4 10 -15 12
-44 8 -43 -7 -65 5 -80 43 -19 51 44 108 91 83 18 -10 24 -9 31 1 13 21 11 26
-13 33 -46 12 -85 6 -110 -17z"/>
<path d="M1270 190 c-44 -44 -13 -133 48 -133 41 0 67 20 51 40 -9 10 -15 11
-23 3 -5 -5 -16 -10 -24 -10 -9 0 0 17 24 46 36 44 37 47 19 60 -27 20 -72 17
-95 -6z m60 -19 c0 -6 -11 -23 -25 -38 l-24 -28 -1 26 c0 14 5 30 12 37 14 14
38 16 38 3z"/>
<path d="M1400 136 c0 -70 2 -76 20 -76 18 0 20 4 15 34 -8 41 0 72 22 80 27
11 43 -13 43 -65 0 -37 4 -49 15 -49 25 0 21 104 -5 130 -21 21 -65 27 -75 10
-5 -8 -11 -7 -21 1 -12 10 -14 0 -14 -65z"/>
<path d="M1680 138 c0 -63 3 -78 15 -78 11 0 15 11 15 39 0 57 8 71 41 71 22
0 29 5 29 20 0 23 -28 27 -62 9 -16 -9 -23 -8 -29 2 -5 9 -9 -17 -9 -63z"/>
<path d="M1822 203 c-21 -8 -43 -61 -36 -87 8 -35 39 -59 74 -59 39 0 64 21
49 39 -9 11 -15 11 -25 3 -32 -26 -31 0 2 41 33 41 34 45 18 57 -18 13 -58 16
-82 6z m48 -30 c0 -5 -11 -21 -25 -38 l-24 -30 -1 26 c0 14 5 30 12 37 13 13
38 16 38 5z"/>
<path d="M70 143 c0 -10 107 -12 470 -10 258 1 470 5 470 9 0 4 -212 9 -470
10 -363 2 -470 0 -470 -9z"/>
<path d="M1990 145 c0 -12 934 -14 946 -3 4 4 -207 9 -470 10 -312 2 -476 0
-476 -7z"/>
</g>
</svg>
