<svg width="60" height="60" viewBox="0 0 60 60" fill="none" xmlns="http://www.w3.org/2000/svg">
<g filter="url(#filter0_d_65_447)">
<rect x="8" y="6" width="40" height="40" rx="20" fill="white"/>
<path d="M23.38 15H32.62C36.14 15 39 17.86 39 21.38V30.62C39 32.3121 38.3278 33.9349 37.1313 35.1313C35.9349 36.3278 34.3121 37 32.62 37H23.38C19.86 37 17 34.14 17 30.62V21.38C17 19.6879 17.6722 18.0651 18.8687 16.8687C20.0651 15.6722 21.6879 15 23.38 15ZM23.16 17.2C22.1097 17.2 21.1025 17.6172 20.3599 18.3599C19.6172 19.1025 19.2 20.1097 19.2 21.16V30.84C19.2 33.029 20.971 34.8 23.16 34.8H32.84C33.8903 34.8 34.8975 34.3828 35.6401 33.6401C36.3828 32.8975 36.8 31.8903 36.8 30.84V21.16C36.8 18.971 35.029 17.2 32.84 17.2H23.16ZM33.775 18.85C34.1397 18.85 34.4894 18.9949 34.7473 19.2527C35.0051 19.5106 35.15 19.8603 35.15 20.225C35.15 20.5897 35.0051 20.9394 34.7473 21.1973C34.4894 21.4551 34.1397 21.6 33.775 21.6C33.4103 21.6 33.0606 21.4551 32.8027 21.1973C32.5449 20.9394 32.4 20.5897 32.4 20.225C32.4 19.8603 32.5449 19.5106 32.8027 19.2527C33.0606 18.9949 33.4103 18.85 33.775 18.85ZM28 20.5C29.4587 20.5 30.8576 21.0795 31.8891 22.1109C32.9205 23.1424 33.5 24.5413 33.5 26C33.5 27.4587 32.9205 28.8576 31.8891 29.8891C30.8576 30.9205 29.4587 31.5 28 31.5C26.5413 31.5 25.1424 30.9205 24.1109 29.8891C23.0795 28.8576 22.5 27.4587 22.5 26C22.5 24.5413 23.0795 23.1424 24.1109 22.1109C25.1424 21.0795 26.5413 20.5 28 20.5ZM28 22.7C27.1248 22.7 26.2854 23.0477 25.6665 23.6665C25.0477 24.2854 24.7 25.1248 24.7 26C24.7 26.8752 25.0477 27.7146 25.6665 28.3335C26.2854 28.9523 27.1248 29.3 28 29.3C28.8752 29.3 29.7146 28.9523 30.3335 28.3335C30.9523 27.7146 31.3 26.8752 31.3 26C31.3 25.1248 30.9523 24.2854 30.3335 23.6665C29.7146 23.0477 28.8752 22.7 28 22.7Z" fill="#0F766E"/>
</g>
<defs>
<filter id="filter0_d_65_447" x="0" y="0" width="60" height="60" filterUnits="userSpaceOnUse" color-interpolation-filters="sRGB">
<feFlood flood-opacity="0" result="BackgroundImageFix"/>
<feColorMatrix in="SourceAlpha" type="matrix" values="0 0 0 0 0 0 0 0 0 0 0 0 0 0 0 0 0 0 127 0" result="hardAlpha"/>
<feOffset dx="2" dy="4"/>
<feGaussianBlur stdDeviation="5"/>
<feComposite in2="hardAlpha" operator="out"/>
<feColorMatrix type="matrix" values="0 0 0 0 1 0 0 0 0 1 0 0 0 0 1 0 0 0 0.1 0"/>
<feBlend mode="normal" in2="BackgroundImageFix" result="effect1_dropShadow_65_447"/>
<feBlend mode="normal" in="SourceGraphic" in2="effect1_dropShadow_65_447" result="shape"/>
</filter>
</defs>
</svg>
