<svg width="60" height="60" viewBox="0 0 60 60" fill="none" xmlns="http://www.w3.org/2000/svg">
<g filter="url(#filter0_d_65_445)">
<rect x="8" y="6" width="40" height="40" rx="20" fill="white"/>
<path fill-rule="evenodd" clip-rule="evenodd" d="M19.2 26C19.2002 24.3065 19.689 22.649 20.6078 21.2264C21.5266 19.8038 22.8363 18.6766 24.3799 17.9799C25.9235 17.2833 27.6353 17.0468 29.3099 17.2989C30.9846 17.5509 32.5509 18.2809 33.821 19.4011C35.091 20.5213 36.0109 21.9842 36.4702 23.6142C36.9295 25.2443 36.9087 26.9722 36.4103 28.5907C35.9119 30.2092 34.957 31.6495 33.6604 32.7388C32.3637 33.8281 30.7802 34.5201 29.1 34.7318V28.2H31.3C31.5917 28.2 31.8715 28.0841 32.0778 27.8778C32.2841 27.6715 32.4 27.3917 32.4 27.1C32.4 26.8083 32.2841 26.5285 32.0778 26.3222C31.8715 26.1159 31.5917 26 31.3 26H29.1V23.8C29.1 23.5083 29.2159 23.2285 29.4222 23.0222C29.6285 22.8159 29.9083 22.7 30.2 22.7H30.75C31.0417 22.7 31.3215 22.5841 31.5278 22.3778C31.7341 22.1715 31.85 21.8917 31.85 21.6C31.85 21.3083 31.7341 21.0285 31.5278 20.8222C31.3215 20.6159 31.0417 20.5 30.75 20.5H30.2C29.3248 20.5 28.4854 20.8477 27.8665 21.4665C27.2477 22.0854 26.9 22.9248 26.9 23.8V26H24.7C24.4083 26 24.1285 26.1159 23.9222 26.3222C23.7159 26.5285 23.6 26.8083 23.6 27.1C23.6 27.3917 23.7159 27.6715 23.9222 27.8778C24.1285 28.0841 24.4083 28.2 24.7 28.2H26.9V34.7318C24.7733 34.4639 22.8175 33.4289 21.3997 31.8212C19.982 30.2134 19.1998 28.1435 19.2 26ZM28 37C34.0753 37 39 32.0753 39 26C39 19.9247 34.0753 15 28 15C21.9247 15 17 19.9247 17 26C17 32.0753 21.9247 37 28 37Z" fill="#0F766E"/>
</g>
<defs>
<filter id="filter0_d_65_445" x="0" y="0" width="60" height="60" filterUnits="userSpaceOnUse" color-interpolation-filters="sRGB">
<feFlood flood-opacity="0" result="BackgroundImageFix"/>
<feColorMatrix in="SourceAlpha" type="matrix" values="0 0 0 0 0 0 0 0 0 0 0 0 0 0 0 0 0 0 127 0" result="hardAlpha"/>
<feOffset dx="2" dy="4"/>
<feGaussianBlur stdDeviation="5"/>
<feComposite in2="hardAlpha" operator="out"/>
<feColorMatrix type="matrix" values="0 0 0 0 1 0 0 0 0 1 0 0 0 0 1 0 0 0 0.1 0"/>
<feBlend mode="normal" in2="BackgroundImageFix" result="effect1_dropShadow_65_445"/>
<feBlend mode="normal" in="SourceGraphic" in2="effect1_dropShadow_65_445" result="shape"/>
</filter>
</defs>
</svg>
