<svg width="60" height="60" viewBox="0 0 60 60" fill="none" xmlns="http://www.w3.org/2000/svg">
<g filter="url(#filter0_d_65_449)">
<rect x="8" y="6" width="40" height="40" rx="20" fill="white"/>
<path d="M30.0906 25.7453L26.2725 27.9271V23.5635L30.0906 25.7453Z" fill="#0F766E" stroke="#0F766E" stroke-width="2" stroke-linecap="round" stroke-linejoin="round"/>
<path d="M17 26.5178V24.9731C17 21.8149 17 20.2353 17.9873 19.2196C18.9756 18.2029 20.5313 18.1593 23.6415 18.0709C25.1142 18.0295 26.6196 18 27.9091 18C29.1985 18 30.7029 18.0295 32.1767 18.0709C35.2869 18.1593 36.8425 18.2029 37.8298 19.2196C38.8171 20.2364 38.8182 21.816 38.8182 24.9731V26.5167C38.8182 29.676 38.8182 31.2545 37.8309 32.2713C36.8425 33.2869 35.288 33.3316 32.1767 33.4189C30.704 33.4615 29.1985 33.4909 27.9091 33.4909C26.6196 33.4909 25.1153 33.4615 23.6415 33.4189C20.5313 33.3316 18.9756 33.288 17.9873 32.2713C16.9989 31.2545 17 29.6749 17 26.5178Z" stroke="#0F766E" stroke-width="2"/>
</g>
<defs>
<filter id="filter0_d_65_449" x="0" y="0" width="60" height="60" filterUnits="userSpaceOnUse" color-interpolation-filters="sRGB">
<feFlood flood-opacity="0" result="BackgroundImageFix"/>
<feColorMatrix in="SourceAlpha" type="matrix" values="0 0 0 0 0 0 0 0 0 0 0 0 0 0 0 0 0 0 127 0" result="hardAlpha"/>
<feOffset dx="2" dy="4"/>
<feGaussianBlur stdDeviation="5"/>
<feComposite in2="hardAlpha" operator="out"/>
<feColorMatrix type="matrix" values="0 0 0 0 1 0 0 0 0 1 0 0 0 0 1 0 0 0 0.1 0"/>
<feBlend mode="normal" in2="BackgroundImageFix" result="effect1_dropShadow_65_449"/>
<feBlend mode="normal" in="SourceGraphic" in2="effect1_dropShadow_65_449" result="shape"/>
</filter>
</defs>
</svg>
