<svg width="60" height="60" viewBox="0 0 60 60" fill="none" xmlns="http://www.w3.org/2000/svg">
<path d="M57.7936 54.0901H55.884V10.8402C55.884 7.13213 52.8677 4.11584 49.1597 4.11584H10.8404C7.13238 4.11584 4.11609 7.13213 4.11609 10.8402V27.3821C4.11609 27.8773 4.51758 28.2787 5.0127 28.2787C5.50781 28.2787 5.9093 27.8773 5.9093 27.3821V21.9148H54.0908V35.3313C48.5562 35.33 18.2636 35.3296 5.9093 35.3313V31.4613C5.9093 30.9662 5.50781 30.5647 5.0127 30.5647C4.51758 30.5647 4.11609 30.9662 4.11609 31.4613C4.11527 35.0072 4.11609 49.5357 4.11609 54.0901H2.20617C1.71105 54.0901 1.30957 54.4916 1.30957 54.9867C1.30957 55.4818 1.71105 55.8833 2.20617 55.8833C97.2535 55.8848 -0.548203 55.8837 57.7936 55.8833C58.2887 55.8833 58.6902 55.4818 58.6902 54.9867C58.6902 54.4916 58.2887 54.0901 57.7936 54.0901ZM54.09 20.1215H5.91023V15.7521H54.09V20.1215ZM5.9093 13.9589V10.8402C5.9093 8.12108 8.12144 5.90905 10.8404 5.90905H49.1597C51.8788 5.90905 54.0908 8.1212 54.0908 10.8402V13.9589H5.9093ZM54.0908 54.0901H28.3648V43.284H54.0908V54.0901ZM28.3657 37.1244H54.0887V41.4908H28.3657V37.1244ZM26.5717 54.0901H21.0198V37.1214H26.5717V54.0901ZM13.6746 37.1214H19.2265V54.0901H13.6746V37.1214ZM11.878 37.1244V41.4908H5.9093V37.1244H11.878ZM5.9093 43.284H11.8815V54.0901H5.9093V43.284Z" fill="white"/>
<path d="M13.1173 27.3448C13.6124 27.3448 14.0139 26.9434 14.0139 26.4482C14.0139 25.9531 13.6124 25.5516 13.1173 25.5516H11.3649C10.8697 25.5516 10.4683 25.9531 10.4683 26.4482C10.4683 26.9434 10.8697 27.3448 11.3649 27.3448H13.1173Z" fill="white"/>
<path d="M21.9967 27.3448C22.4918 27.3448 22.8933 26.9434 22.8933 26.4482C22.8933 25.9531 22.4918 25.5516 21.9967 25.5516H20.2443C19.7491 25.5516 19.3477 25.9531 19.3477 26.4482C19.3477 26.9434 19.7491 27.3448 20.2443 27.3448H21.9967Z" fill="white"/>
<path d="M30.8766 27.3448C31.3717 27.3448 31.7732 26.9434 31.7732 26.4482C31.7732 25.9531 31.3717 25.5516 30.8766 25.5516H29.1241C28.629 25.5516 28.2275 25.9531 28.2275 26.4482C28.2275 26.9434 28.629 27.3448 29.1241 27.3448H30.8766Z" fill="white"/>
<path d="M39.756 27.3448C40.2511 27.3448 40.6526 26.9434 40.6526 26.4482C40.6526 25.9531 40.2511 25.5516 39.756 25.5516H38.0035C37.5084 25.5516 37.1069 25.9531 37.1069 26.4482C37.1069 26.9434 37.5084 27.3448 38.0035 27.3448H39.756Z" fill="white"/>
<path d="M48.6353 27.3448C49.1305 27.3448 49.5319 26.9434 49.5319 26.4482C49.5319 25.9531 49.1305 25.5516 48.6353 25.5516H46.8824C46.3873 25.5516 45.9858 25.9531 45.9858 26.4482C45.9858 26.9434 46.3873 27.3448 46.8824 27.3448H48.6353Z" fill="white"/>
</svg>
