<svg width="60" height="60" viewBox="0 0 60 60" fill="none" xmlns="http://www.w3.org/2000/svg">
<g clip-path="url(#clip0_65_269)">
<path fill-rule="evenodd" clip-rule="evenodd" d="M8.43505 50.6248C8.04693 50.6248 7.73193 50.3095 7.73193 49.9217V45.7479C-0.705959 37.7309 -2.2103 28.0854 2.99179 15.421C3.14191 15.0553 3.56273 14.8855 3.92554 15.0444C4.00464 15.0793 11.5995 18.5457 8.54369 27.6269C10.6422 28.426 16.2844 31.4794 14.8212 40.8598C14.6785 41.7746 13.2887 41.5576 13.4318 40.6432C15.0023 30.5758 7.79134 28.8261 7.48337 28.7565C7.06782 28.663 6.82665 28.2154 6.97993 27.8175C9.61912 20.9563 5.64012 17.6882 4.00043 16.6803C-4.00574 37.0362 9.13783 43.686 9.13783 45.4442V49.9213C9.13853 50.3098 8.82423 50.6248 8.4354 50.6248H8.43505Z" fill="white"/>
<path fill-rule="evenodd" clip-rule="evenodd" d="M22.415 50.6248C22.0269 50.6248 21.7119 50.3095 21.7119 49.9217V43.2469C21.7119 43.0602 21.7861 42.8816 21.9179 42.7494C27.6843 36.9754 25.7057 35.1961 25.7057 27.1713C25.7057 26.2456 27.1119 26.2456 27.1119 27.1713C27.1119 29.1038 27.2086 30.6588 27.2937 32.0303C27.5837 36.7025 27.7191 38.8713 23.1189 43.537V49.9217C23.1182 50.3098 22.8032 50.6248 22.415 50.6248Z" fill="white"/>
<path fill-rule="evenodd" clip-rule="evenodd" d="M4.73775 17.0347C4.23852 17.0347 3.88837 16.5119 4.09614 16.0454L8.56206 6.01139C10.0752 2.61106 14.9735 2.73165 16.3119 6.21564C16.8983 7.74178 16.4986 10.3138 15.3033 9.78191C14.2479 9.31222 15.6542 8.42733 14.9981 6.71944C14.1073 4.39911 10.8518 4.32318 9.84632 6.58338L5.38005 16.6174C5.26333 16.8796 5.00669 17.035 4.73704 17.035L4.73775 17.0347Z" fill="white"/>
<path fill-rule="evenodd" clip-rule="evenodd" d="M16.9641 21.4278C16.4649 21.4278 16.1147 20.905 16.3225 20.4385L22.1293 7.39374C22.7547 5.98749 22.1201 4.33408 20.7142 3.70865C19.3059 3.08216 17.6546 3.71744 17.0284 5.12334L16.4111 6.50921C16.7047 7.47531 16.6431 8.50047 16.2311 9.42613L12.1544 18.5837C11.7792 19.4264 10.4943 18.8544 10.8697 18.0117L14.9465 8.85414C15.5944 7.39761 14.7464 6.79046 15.0143 6.18893L15.7435 4.55135C16.6853 2.4374 19.1719 1.48325 21.2848 2.42404C23.3995 3.36517 24.3543 5.85108 23.4139 7.96574L17.6071 21.0102C17.4904 21.2724 17.2334 21.4275 16.9641 21.4275V21.4278Z" fill="white"/>
<path fill-rule="evenodd" clip-rule="evenodd" d="M26.568 15.9128C26.0688 15.9128 25.7186 15.3901 25.9264 14.9235L27.3221 11.7872C27.9461 10.3841 27.3182 8.7325 25.8884 8.09406C25.0362 7.72211 24.0473 7.80578 23.2626 8.30852C23.1459 8.44457 22.9117 9.72145 22.0374 9.33333C21.0804 8.90899 22.1615 7.36492 22.2849 7.27422C25.7566 4.72924 30.3329 8.48113 28.606 12.3592L27.2103 15.4955C27.0939 15.7575 26.8373 15.9128 26.5676 15.9128H26.568Z" fill="white"/>
<path fill-rule="evenodd" clip-rule="evenodd" d="M26.4089 27.8744C25.9136 27.8744 25.5631 27.359 25.7627 26.8932L29.1163 19.0853C29.824 17.4372 27.9396 15.4276 27.3188 15.2522L22.7998 25.4033C22.4247 26.247 21.14 25.6736 21.5152 24.8313L26.2585 14.1771C26.6483 13.3017 28.3144 14.0738 28.4986 14.2618C29.464 15.2265 31.4479 17.2213 30.4094 19.6397L27.0558 27.4483C26.9405 27.7148 26.681 27.8744 26.4086 27.8744H26.4089Z" fill="white"/>
<path fill-rule="evenodd" clip-rule="evenodd" d="M24.3268 57.9398H6.52255C5.37364 57.9398 4.43848 57.0046 4.43848 55.8554V51.3026C4.43848 50.1534 5.37364 49.2182 6.52255 49.2182H24.3268C25.4761 49.2182 26.4112 50.1534 26.4112 51.3026V55.8554C26.4109 57.0046 25.4757 57.9398 24.3268 57.9398ZM6.52255 50.6252C6.14883 50.6252 5.84473 50.9289 5.84473 51.303V55.8557C5.84473 56.2298 6.14883 56.5332 6.52255 56.5332H24.3268C24.7009 56.5332 25.005 56.2294 25.005 55.8557V51.303C25.005 50.9289 24.7009 50.6252 24.3268 50.6252H6.52255Z" fill="white"/>
<path fill-rule="evenodd" clip-rule="evenodd" d="M21.1136 31.1464C20.8633 31.1464 20.6207 31.0125 20.4938 30.7766C19.0461 28.091 16.5113 26.0916 12.9601 24.8327C12.0865 24.523 12.5586 23.1986 13.4298 23.5073C17.3199 24.8865 20.1134 27.1077 21.7313 30.1093C21.9855 30.5811 21.6385 31.1461 21.1136 31.1461V31.1464Z" fill="white"/>
<path fill-rule="evenodd" clip-rule="evenodd" d="M51.5664 50.6248C51.1783 50.6248 50.8633 50.3095 50.8633 49.9217V45.4442C50.8633 43.687 64.0065 37.0347 56.0007 16.6803C54.362 17.6875 50.3809 20.9549 53.0212 27.8174C53.1755 28.2179 52.934 28.6637 52.516 28.7568C52.2105 28.8257 44.9988 30.5758 46.5693 40.6432C46.7116 41.5562 45.3233 41.7759 45.1795 40.8598C43.7167 31.4797 49.3593 28.4264 51.4574 27.6269C48.4016 18.5453 55.9964 15.0796 56.0755 15.0444C56.4362 14.8845 56.8592 15.056 57.0093 15.421C62.2114 28.086 60.707 37.7308 52.2695 45.7479V49.9217C52.2702 50.3095 51.9552 50.6245 51.5671 50.6245L51.5664 50.6248Z" fill="white"/>
<path fill-rule="evenodd" clip-rule="evenodd" d="M37.5865 50.6248C37.1984 50.6248 36.8834 50.3095 36.8834 49.9217V43.5369C32.2832 38.871 32.4182 36.7025 32.7079 32.0302C32.7933 30.6588 32.8896 29.1045 32.8896 27.1713C32.8896 26.246 34.2959 26.246 34.2959 27.1713C34.2959 35.2017 32.3145 36.969 38.0836 42.7494C38.2155 42.8816 38.29 43.0606 38.29 43.2469V49.9217C38.2903 50.3098 37.975 50.6248 37.5869 50.6248H37.5865Z" fill="white"/>
<path fill-rule="evenodd" clip-rule="evenodd" d="M55.264 17.0346C54.9944 17.0346 54.7377 16.8796 54.6214 16.6173L50.1554 6.58336C49.5297 5.1771 47.8763 4.54183 46.47 5.16866C45.0637 5.7948 44.4285 7.44785 45.055 8.85411C45.4301 9.69716 44.1448 10.2681 43.7707 9.4261C42.266 6.03949 45.6069 2.45986 49.1092 3.80389C50.1586 4.20678 50.9872 4.99077 51.4408 6.01171L55.9067 16.0457C56.1148 16.5136 55.7636 17.0346 55.2644 17.0346H55.264Z" fill="white"/>
<path fill-rule="evenodd" clip-rule="evenodd" d="M43.0371 21.4278C42.7675 21.4278 42.5109 21.2728 42.3945 21.0105L36.587 7.96572C35.6462 5.85106 36.6007 3.36515 38.7147 2.42401C40.83 1.48112 43.3152 2.43667 44.2571 4.55098C44.5735 5.26149 45.1736 6.27329 45.0006 6.7261C44.7345 7.42325 44.7535 8.17912 45.0537 8.85447L49.1305 18.012C49.5056 18.8554 48.2203 19.4256 47.8462 18.584L43.7695 9.42646C43.3574 8.50045 43.2959 7.47564 43.5891 6.50989L42.9721 5.12367C42.3456 3.71812 40.6919 3.08249 39.2877 3.70898C37.8808 4.33512 37.2458 5.98817 37.8716 7.39443L43.6791 20.4392C43.8872 20.9071 43.5364 21.4278 43.0368 21.4278H43.0371Z" fill="white"/>
<path fill-rule="evenodd" clip-rule="evenodd" d="M33.4337 15.9128C33.1641 15.9128 32.9074 15.7574 32.791 15.4955L31.3953 12.3592C30.4503 10.2357 31.4161 7.76742 33.5241 6.81679C35.2805 6.02436 37.5941 6.76792 37.9439 7.55578C38.197 8.12636 38.7539 8.98348 37.965 9.33328C37.0914 9.72071 36.8565 8.44383 36.7405 8.30812C36.4241 7.94004 34.9918 7.6623 34.0961 8.10211C32.6898 8.72824 32.0549 10.3809 32.681 11.7872L34.0771 14.9231C34.2848 15.3911 33.9336 15.9128 33.4344 15.9128H33.4337Z" fill="white"/>
<path fill-rule="evenodd" clip-rule="evenodd" d="M33.5928 27.8744C33.32 27.8744 33.0606 27.7148 32.9463 27.4487L29.5927 19.6408C28.4255 16.9229 31.3502 14.2735 31.7257 14.1065C32.2576 13.8699 33.4174 13.4455 33.744 14.1782L38.4873 24.8323C38.8624 25.6754 37.5771 26.247 37.203 25.4043L32.6833 15.2529C32.0649 15.4252 30.1781 17.4376 30.8854 19.0857L34.239 26.8936C34.439 27.3597 34.0889 27.8741 33.5928 27.8741V27.8744Z" fill="white"/>
<path fill-rule="evenodd" clip-rule="evenodd" d="M53.4785 57.9398H35.6743C34.525 57.9398 33.5898 57.0046 33.5898 55.8554V51.3026C33.5898 50.1534 34.525 49.2182 35.6743 49.2182H53.4785C54.6278 49.2182 55.5629 50.1534 55.5629 51.3026V55.8554C55.5629 57.0046 54.6278 57.9398 53.4785 57.9398ZM35.6743 50.6252C35.3002 50.6252 34.9965 50.9289 34.9965 51.303V55.8557C34.9965 56.2298 35.3002 56.5332 35.6743 56.5332H53.4785C53.8526 56.5332 54.1563 56.2294 54.1563 55.8557V51.303C54.1563 50.9289 53.8526 50.6252 53.4785 50.6252H35.6743Z" fill="white"/>
<path fill-rule="evenodd" clip-rule="evenodd" d="M38.8883 31.1464C38.3634 31.1464 38.015 30.5818 38.2699 30.1093C39.8881 27.108 42.6813 24.8865 46.5714 23.5073C47.4436 23.1997 47.9143 24.5226 47.0414 24.8323C43.4903 26.0913 40.9551 28.091 39.5074 30.7762C39.3805 31.0121 39.1383 31.1461 38.8883 31.1461V31.1464Z" fill="white"/>
</g>
<defs>
<clipPath id="clip0_65_269">
<rect width="60" height="60" fill="white"/>
</clipPath>
</defs>
</svg>
